<?xml version="1.0" standalone="no"?>
<!DOCTYPE svg PUBLIC "-//W3C//DTD SVG 20010904//EN"
 "http://www.w3.org/TR/2001/REC-SVG-20010904/DTD/svg10.dtd">
<svg version="1.0" xmlns="http://www.w3.org/2000/svg"
 width="2388.000000pt" height="1668.000000pt" viewBox="0 0 2388.000000 1668.000000"
 preserveAspectRatio="xMidYMid meet">

<g transform="translate(0.000000,1668.000000) scale(0.100000,-0.100000)"
fill="#000000" stroke="none">
<path d="M15970 14080 c-30 -4 -84 -17 -120 -28 -36 -11 -87 -25 -115 -31 -90
-22 -129 -33 -185 -54 -291 -109 -576 -336 -743 -592 -58 -88 -103 -173 -96
-180 3 -2 13 12 24 33 41 80 177 261 247 328 68 67 217 174 241 174 6 0 42 16
81 36 65 34 69 35 54 13 -9 -13 -62 -71 -119 -129 -169 -170 -310 -376 -381
-555 -9 -22 -36 -83 -61 -135 -24 -52 -54 -124 -66 -160 -68 -207 -76 -261
-75 -525 1 -135 6 -242 12 -260 8 -24 11 -3 10 103 0 74 3 136 6 139 13 13 36
-9 56 -53 21 -50 46 -172 60 -309 5 -44 16 -118 24 -165 18 -97 20 -172 7
-198 -5 -9 -27 -55 -48 -102 -44 -100 -108 -210 -164 -286 -28 -39 -56 -62
-97 -83 -31 -16 -66 -38 -76 -50 -11 -12 -23 -21 -27 -21 -5 0 -40 42 -77 93
-105 141 -278 291 -308 267 -10 -9 -23 -5 -56 18 -149 102 -394 196 -608 234
-119 21 -444 17 -555 -6 -193 -40 -353 -106 -431 -178 -24 -23 -47 -38 -51
-35 -3 4 -1 24 5 44 6 21 11 52 11 68 0 17 0 57 0 90 1 120 -38 219 -112 281
-73 62 -165 4 -212 -132 -87 -255 30 -602 182 -539 19 8 36 15 37 15 2 0 -2
-105 -8 -187 -3 -42 -2 -73 3 -73 6 0 12 46 14 103 6 157 18 189 101 273 77
76 127 108 233 146 131 48 203 65 361 82 119 13 149 8 79 -14 -111 -35 -256
-120 -357 -210 -41 -37 -100 -82 -130 -102 -74 -47 -145 -111 -179 -162 -33
-49 -50 -107 -101 -350 -55 -257 -71 -313 -90 -301 -11 7 -9 18 10 110 26 124
49 257 52 305 2 46 0 55 -14 58 -15 3 -18 -4 -18 -42 0 -25 -4 -48 -10 -51 -5
-3 -10 -28 -10 -55 0 -28 -4 -69 -9 -92 -6 -24 -17 -77 -26 -118 -14 -69 -49
-194 -63 -230 -4 -9 -8 -1 -10 20 -2 19 -7 39 -11 45 -5 5 -20 55 -35 110 -35
129 -97 315 -107 321 -10 6 -64 -77 -81 -123 -7 -18 -15 -33 -19 -33 -15 0
-30 465 -15 507 4 13 5 27 1 32 -9 16 -114 -50 -170 -106 -85 -85 -124 -150
-133 -218 l-7 -59 -54 94 c-160 278 -211 342 -348 439 -242 171 -447 235 -628
196 -44 -10 -91 -19 -105 -22 -177 -30 -327 -106 -406 -205 -101 -127 -100
-123 -124 -291 -6 -43 -6 -103 0 -169 9 -92 14 -110 62 -207 83 -171 188 -288
308 -344 154 -72 321 -90 420 -45 73 33 92 56 88 105 -3 32 -8 40 -38 55 -19
9 -73 22 -120 29 -118 16 -204 61 -274 145 -116 136 -156 235 -156 392 0 90 5
105 58 170 41 50 78 68 182 88 111 22 189 8 315 -55 85 -43 107 -59 140 -103
47 -63 145 -253 145 -281 0 -11 4 -36 9 -56 32 -121 63 -274 81 -406 5 -34 18
-85 28 -115 11 -30 25 -77 32 -105 30 -127 44 -178 82 -293 35 -107 48 -133
98 -195 31 -40 87 -96 124 -126 36 -30 66 -58 66 -63 0 -4 -11 -15 -25 -24
-22 -14 -34 -15 -88 -5 -34 7 -89 20 -122 31 -33 10 -98 28 -145 40 -47 12
-98 28 -115 35 -41 18 -101 38 -225 76 -58 17 -121 40 -140 49 -19 10 -78 29
-130 41 -89 21 -163 48 -271 97 -26 12 -73 31 -105 43 -33 12 -63 25 -68 30
-6 5 -16 9 -22 9 -7 0 -41 13 -76 29 -35 15 -90 41 -123 55 -42 19 -79 28
-123 29 l-62 2 -16 50 c-65 196 -208 438 -373 634 -78 92 -243 249 -303 288
l-38 26 0 83 c0 87 9 107 39 80 10 -10 21 -12 27 -7 5 6 31 4 64 -5 59 -16
135 -13 153 5 14 14 13 142 -2 180 -5 14 -15 54 -22 89 -6 35 -18 70 -26 78
-20 19 -9 35 89 132 217 213 479 342 788 388 320 47 715 -51 995 -247 39 -27
98 -67 131 -89 63 -41 177 -156 222 -222 13 -21 28 -38 33 -38 24 0 -74 158
-164 263 -92 107 -364 288 -524 349 -13 4 -33 13 -45 18 -13 6 -59 19 -103 30
-272 69 -545 71 -778 6 -32 -9 -61 -16 -64 -16 -3 0 -3 24 1 54 5 48 3 57 -24
94 -36 50 -84 66 -185 60 -75 -4 -205 -52 -289 -107 -22 -15 -57 -34 -76 -41
-19 -7 -53 -27 -75 -45 -22 -17 -56 -41 -76 -53 -37 -23 -148 -131 -198 -195
-50 -64 -72 -137 -69 -231 3 -72 5 -81 22 -81 16 0 23 13 36 65 20 79 31 101
83 163 45 54 165 128 267 165 105 38 257 73 303 70 l42 -3 -97 -58 c-155 -92
-324 -252 -409 -387 -50 -80 -68 -126 -75 -189 -4 -31 -16 -77 -27 -104 -18
-44 -18 -49 -3 -66 12 -13 16 -37 16 -89 0 -40 -3 -72 -7 -72 -3 0 -40 22 -82
49 -95 61 -260 144 -371 187 -349 134 -769 169 -1144 93 -622 -126 -1181 -569
-1448 -1149 -107 -232 -188 -573 -188 -790 l0 -60 45 -11 c25 -6 45 -17 45
-23 0 -6 -24 -20 -52 -30 -29 -10 -93 -37 -143 -61 -49 -23 -106 -50 -125 -58
-19 -9 -44 -24 -55 -34 -11 -10 -54 -43 -95 -72 -41 -30 -101 -76 -132 -103
-31 -27 -82 -68 -113 -92 l-56 -44 -56 15 c-109 28 -278 -17 -400 -106 -105
-77 -274 -260 -327 -356 -9 -16 -30 -52 -47 -79 -50 -81 -26 -76 29 7 33 49
61 79 76 83 14 3 39 28 60 58 49 71 167 184 244 234 109 71 230 90 319 51 33
-14 33 -14 17 -44 -26 -48 -80 -156 -103 -207 -24 -53 -31 -58 -181 -118 -120
-49 -197 -61 -234 -36 -32 21 -36 20 -36 -4 0 -11 11 -27 25 -36 30 -20 28
-24 -39 -69 -61 -40 -63 -41 -88 -18 -17 15 -18 15 -18 0 0 -26 48 -32 102
-13 26 9 84 34 130 55 129 60 297 125 303 119 4 -3 1 -26 -6 -49 -6 -24 -12
-98 -13 -164 -1 -105 2 -126 21 -165 48 -95 135 -217 210 -293 81 -82 130
-116 201 -141 23 -9 57 -22 75 -30 17 -8 48 -19 67 -24 49 -15 202 -19 207 -7
1 6 -22 24 -53 40 -74 40 -154 128 -198 217 -31 64 -36 86 -42 174 -11 171 33
294 140 390 58 52 150 104 162 92 3 -3 -17 -34 -43 -69 -86 -114 -135 -204
-131 -241 3 -28 6 -33 27 -30 26 4 82 34 120 63 13 11 30 19 37 19 8 0 22 4
32 10 9 5 55 18 101 29 l84 20 56 -26 c63 -29 80 -47 81 -84 0 -34 14 -39 120
-46 l85 -6 155 -151 c86 -83 187 -173 225 -200 39 -28 91 -68 116 -90 83 -73
479 -297 577 -327 49 -14 53 -30 15 -54 -32 -22 -77 -21 -141 0 -203 70 -477
17 -612 -118 -51 -51 -61 -84 -25 -80 11 1 49 7 85 13 99 16 299 29 329 20 25
-7 23 -9 -34 -35 -291 -131 -577 -332 -780 -547 -123 -130 -202 -223 -238
-279 -99 -155 -222 -442 -233 -546 -4 -32 -11 -66 -16 -76 -5 -10 -9 -116 -8
-237 0 -248 7 -279 74 -338 33 -28 42 -32 74 -26 57 10 103 35 115 61 10 23
12 24 24 7 7 -10 13 -24 13 -31 0 -34 95 -206 138 -248 97 -97 254 -225 277
-225 2 0 37 -15 77 -34 193 -88 355 -108 496 -60 42 14 81 30 87 35 5 5 15 9
21 9 7 0 47 16 88 35 42 19 78 35 80 35 11 0 181 118 313 217 190 142 288 234
356 332 64 91 75 111 122 219 54 127 45 226 -14 154 -14 -18 -70 -77 -123
-133 -54 -55 -98 -105 -98 -110 0 -5 -4 -9 -10 -9 -17 0 -11 19 24 67 45 64
86 140 86 159 0 9 15 55 34 103 42 107 57 241 26 241 -16 0 -50 -52 -50 -77 0
-5 -15 -27 -33 -49 -19 -21 -63 -82 -100 -134 -74 -108 -77 -110 -212 -207
l-100 -70 -131 -7 -130 -7 -65 69 c-138 145 -179 235 -179 391 0 143 30 223
118 314 26 27 70 65 97 85 28 20 59 45 70 55 11 9 43 31 71 47 29 16 55 34 59
40 16 25 33 8 39 -41 4 -28 19 -80 33 -116 22 -54 35 -71 82 -106 31 -23 58
-45 59 -49 2 -5 21 -8 41 -8 27 0 44 7 62 26 22 23 24 34 23 109 0 46 -5 94
-11 107 -6 13 -19 46 -28 73 -10 28 -31 69 -46 93 -52 78 -31 78 41 -1 51 -54
88 -84 133 -106 34 -17 82 -42 107 -56 49 -26 154 -47 192 -38 36 9 78 43 89
71 14 36 -4 81 -53 130 -44 45 -38 52 20 26 21 -9 51 -22 68 -29 l31 -13 6
-119 c6 -99 3 -131 -14 -203 -50 -210 -63 -359 -50 -560 19 -274 30 -356 51
-385 4 -5 10 -23 14 -40 7 -30 89 -198 129 -265 35 -58 167 -220 190 -232 12
-6 24 -14 27 -17 7 -9 49 -27 89 -40 54 -17 91 -13 127 14 l34 26 67 -41 c38
-23 100 -61 138 -86 39 -24 79 -48 90 -53 89 -39 237 -38 313 2 42 22 47 28
50 63 2 30 -4 50 -28 86 -28 43 -48 61 -136 128 -163 125 -277 236 -330 324
-16 27 -37 60 -46 75 -30 47 -19 49 70 11 130 -56 178 -59 279 -19 30 12 34
11 62 -15 16 -15 53 -39 82 -52 30 -14 82 -44 117 -66 81 -53 137 -62 252 -43
194 32 320 119 320 221 l0 41 56 7 c31 3 66 11 77 18 18 9 23 7 36 -13 44 -66
33 -67 176 29 72 48 175 115 229 150 l98 62 -21 34 -21 34 23 15 c56 36 177
140 177 151 0 16 44 99 117 221 88 148 110 187 162 288 25 51 64 118 86 150
22 32 54 80 70 107 17 27 46 67 66 88 l36 40 74 -14 c95 -18 250 -55 266 -63
14 -7 6 -20 -80 -130 -43 -56 -60 -90 -104 -206 -31 -80 -42 -153 -49 -301
l-7 -152 47 -71 c26 -39 61 -84 76 -100 40 -40 149 -116 207 -146 135 -67 422
-107 533 -74 81 25 147 28 134 7 -4 -7 -9 -35 -10 -63 -5 -89 -51 -240 -113
-365 -33 -68 -101 -170 -112 -170 -5 0 -9 -6 -9 -14 0 -8 -43 -58 -95 -110
-94 -94 -237 -199 -363 -266 -34 -18 -62 -37 -62 -41 0 -14 150 -10 205 5 79
21 212 75 225 91 16 20 5 19 -60 -5 -46 -17 -56 -18 -68 -6 -12 12 -8 20 30
57 24 24 70 66 101 92 88 74 226 262 284 387 38 83 82 224 98 320 25 147 21
139 106 181 42 21 89 49 104 63 16 15 33 26 40 26 27 0 174 152 211 218 20 37
52 85 69 107 39 49 61 88 79 140 l14 40 11 -28 c6 -16 11 -34 11 -40 2 -30
107 -175 165 -226 49 -43 96 -63 113 -49 9 8 12 74 12 269 0 143 3 259 8 258
4 0 27 -31 52 -69 25 -38 53 -71 62 -74 11 -2 18 -14 18 -28 0 -68 54 -199
124 -301 25 -37 46 -70 46 -73 0 -3 -15 -25 -32 -47 -50 -62 -88 -222 -88
-366 0 -158 29 -221 112 -246 87 -26 106 -21 163 37 49 51 75 106 75 157 0 27
-7 29 103 -38 67 -42 86 -58 81 -70 -18 -38 -15 -106 5 -139 64 -101 184 -87
214 25 8 32 15 42 27 38 8 -3 56 -14 105 -24 50 -11 130 -34 179 -51 125 -44
430 -89 466 -70 16 9 20 8 -90 29 -30 6 -68 13 -85 16 -52 10 -261 64 -320 83
-278 88 -648 290 -689 376 -19 41 -20 53 -3 59 9 3 8 9 -4 23 -9 10 -35 53
-59 94 -47 85 -95 140 -122 140 -30 0 -114 127 -150 227 -43 121 -52 196 -32
269 9 33 27 101 40 153 13 51 25 94 26 95 2 1 20 14 41 29 l37 28 0 -89 c0
-59 7 -113 21 -163 32 -114 41 -168 43 -251 2 -63 9 -93 41 -170 57 -139 114
-220 239 -343 87 -85 136 -124 218 -173 100 -59 265 -135 333 -153 17 -4 73
-20 125 -35 102 -28 133 -35 280 -60 228 -38 574 -49 805 -26 461 46 487 37
564 -197 54 -163 72 -271 78 -455 6 -186 -2 -258 -45 -396 -69 -224 -278 -505
-502 -675 -122 -93 -417 -255 -464 -255 -7 0 -16 -3 -20 -7 -4 -5 -22 -13 -39
-20 -30 -11 -30 -12 -7 -12 26 -1 94 20 106 32 4 4 13 7 20 7 16 0 165 72 239
115 191 110 415 319 527 490 94 144 148 249 169 330 4 17 15 57 24 90 26 95
32 399 10 522 -25 142 -70 298 -107 373 -64 127 -123 139 -458 93 -135 -18
-417 -20 -606 -3 -183 17 -397 65 -443 99 -41 31 -18 41 97 41 187 0 418 36
587 91 354 116 591 356 755 769 23 58 51 125 62 148 11 24 29 81 41 127 l21
83 59 12 c39 7 69 21 90 40 l32 29 31 -30 c40 -39 91 -51 152 -36 62 16 76 42
55 104 -14 41 -45 68 -65 56 -5 -2 -8 5 -8 15 0 13 9 22 25 26 14 4 31 17 37
30 l10 24 43 -33 c89 -67 308 -164 495 -218 410 -118 720 -123 933 -16 135 68
318 220 357 295 8 16 28 51 43 78 16 27 35 68 44 90 8 23 26 64 38 92 13 29
27 68 30 88 8 39 19 44 49 21 26 -20 62 -19 126 2 61 20 101 66 125 145 15 52
10 96 -29 238 -9 30 -25 88 -36 129 -25 94 -54 153 -132 273 -134 206 -310
422 -416 511 -31 27 -75 65 -97 84 -53 49 -224 160 -258 168 -54 14 -23 -25
63 -79 47 -30 389 -369 437 -433 15 -21 48 -61 73 -89 52 -59 68 -82 184 -268
47 -76 86 -149 86 -161 0 -12 3 -25 7 -29 12 -11 33 -80 33 -108 0 -15 5 -39
10 -54 12 -30 19 -173 10 -179 -3 -2 -12 0 -20 5 -18 11 -40 -12 -40 -45 0
-23 2 -25 15 -11 8 8 15 19 15 25 0 14 17 14 25 1 3 -5 2 -10 -4 -10 -5 0 -13
-9 -16 -20 -3 -11 -15 -20 -25 -20 -10 0 -21 -4 -24 -8 -7 -12 -93 -14 -115
-3 -16 9 -19 28 -26 173 -4 90 -14 190 -22 223 -14 55 -60 169 -83 205 -5 8
-17 29 -26 45 -30 53 -167 245 -175 245 -23 0 -6 -43 55 -139 15 -22 26 -43
26 -46 0 -2 15 -28 33 -57 18 -29 39 -69 46 -88 8 -19 19 -48 26 -65 7 -16 18
-48 25 -70 7 -22 17 -53 23 -69 14 -38 13 -250 -2 -314 -6 -29 -16 -76 -22
-104 -12 -60 -37 -144 -50 -170 -5 -10 -9 -26 -9 -37 0 -10 -7 -24 -15 -31 -8
-7 -15 -21 -15 -31 0 -29 -19 -58 -90 -132 -107 -114 -285 -237 -341 -237 -10
0 -21 -4 -24 -10 -3 -5 -11 -10 -17 -10 -9 0 1 13 53 68 20 23 119 175 157
243 28 51 55 130 72 209 4 19 16 71 25 115 34 150 18 356 -38 521 -36 104
-131 284 -178 338 -30 34 -40 52 -36 68 10 36 -16 99 -58 143 -42 42 -116 75
-171 75 -15 0 -38 10 -51 22 l-22 21 33 46 c50 69 74 122 96 213 34 143 23
230 -35 276 -31 24 -83 29 -133 11 -34 -12 -95 0 -127 26 -19 14 -15 15 50 14
91 -1 91 -1 78 12 -6 6 -75 14 -154 19 -79 4 -160 12 -179 18 -69 21 -154 41
-159 37 -11 -11 25 -35 77 -51 31 -9 62 -22 67 -28 20 -22 55 -36 89 -36 34 0
96 -28 96 -42 0 -5 8 -8 18 -8 10 0 21 -3 24 -6 8 -8 -61 -129 -99 -174 -59
-69 -168 -100 -238 -68 -27 12 -35 48 -10 48 20 0 19 10 -2 26 -12 8 -13 13
-5 14 29 0 37 90 7 90 -8 0 -15 27 -19 83 -10 112 -48 285 -85 386 -30 81 -30
84 -8 63 28 -27 49 -29 40 -4 -7 18 -123 156 -155 184 -11 10 -23 16 -27 14
-4 -3 -19 5 -34 17 l-27 22 34 50 c165 245 236 471 243 781 4 147 1 185 -17
275 -45 216 -47 190 13 220 23 12 62 36 87 53 56 40 182 86 235 87 61 1 158
24 163 38 2 7 -2 17 -9 22 -19 12 -224 10 -324 -2 -44 -5 -89 -10 -101 -10
-11 0 -51 -8 -89 -19 -37 -11 -72 -17 -77 -14 -4 3 -20 28 -34 55 -30 61 -48
69 -179 81 -149 13 -142 10 -150 70 -9 64 -56 206 -81 247 -133 211 -360 428
-547 521 -43 22 -86 40 -93 40 -8 0 -22 4 -32 9 -9 5 -39 19 -65 31 -48 22
-61 39 -16 22 84 -33 323 -43 439 -18 85 18 177 50 232 79 23 13 62 34 84 47
133 73 296 254 374 415 61 127 73 163 105 312 20 96 20 337 0 435 -38 179
-134 380 -246 512 -52 63 -177 180 -239 224 -73 52 -283 162 -311 162 -10 0
-20 4 -23 9 -24 37 -422 82 -556 61z m235 -191 c133 -15 277 -55 395 -112 136
-65 309 -202 363 -286 27 -43 13 -36 -73 40 -58 50 -141 109 -155 109 -2 0 40
-44 93 -97 107 -107 141 -152 195 -258 91 -181 130 -405 96 -552 -6 -27 -18
-75 -26 -108 -55 -231 -213 -444 -395 -536 -52 -26 -88 -36 -88 -24 0 14 94
136 117 151 46 29 144 126 172 169 114 175 156 317 153 508 -3 118 -11 167
-51 284 -84 247 -303 455 -577 548 -119 40 -351 69 -389 48 -13 -8 11 -12 91
-16 62 -3 143 -14 187 -26 245 -65 456 -245 569 -487 35 -75 32 -94 -16 -94
-28 0 -41 -7 -65 -37 -45 -55 -42 -95 9 -145 44 -41 61 -45 100 -23 14 8 29
14 34 15 10 0 -1 -127 -15 -173 -26 -80 -74 -153 -117 -176 -28 -15 -77 -14
-89 2 -6 6 -13 21 -16 32 -27 99 -79 221 -104 248 -17 18 -47 61 -68 97 -58
97 -80 117 -190 169 -173 83 -207 89 -380 62 -72 -11 -168 -22 -215 -24 -68
-4 -101 -11 -165 -39 -192 -83 -302 -186 -478 -448 -95 -141 -142 -263 -197
-520 -21 -94 -37 -74 -65 80 -23 131 -31 358 -15 473 33 252 122 467 274 662
122 157 278 285 451 368 97 47 108 52 165 70 104 33 118 37 146 38 16 0 37 4
47 8 31 12 186 12 292 0z m-385 -789 c-190 -75 -282 -146 -436 -339 -131 -164
-194 -303 -229 -506 -8 -49 -32 -151 -51 -225 -45 -167 -73 -283 -81 -333 -3
-21 -10 -40 -14 -43 -5 -3 -9 -16 -9 -30 0 -13 -6 -24 -13 -24 -7 0 -32 -61
-62 -150 -27 -82 -53 -150 -57 -150 -4 0 -8 15 -8 34 0 19 -5 36 -11 38 -10 3
-6 24 32 158 6 19 14 56 19 83 10 52 56 206 102 337 16 47 36 134 44 194 16
110 32 160 123 385 88 215 105 238 286 402 56 51 147 119 159 119 2 0 27 14
55 31 47 30 112 46 191 47 30 1 25 -3 -40 -28z m1100 5 c15 -18 15 -94 0 -109
-15 -15 -26 5 -35 61 -9 59 7 81 35 48z m-885 -289 c91 -16 115 -24 115 -38 0
-5 -42 -6 -108 -2 -104 6 -141 2 -207 -26 -11 -4 -27 -11 -35 -14 -25 -10 -81
-45 -148 -93 -77 -55 -148 -139 -189 -224 -47 -96 -160 -439 -185 -559 -5 -25
-11 -326 -13 -670 -3 -501 -6 -634 -18 -669 -8 -28 -16 -39 -19 -29 -13 33
-20 954 -9 1105 10 136 33 292 46 313 2 4 11 32 19 61 8 30 22 79 31 109 18
60 39 147 55 223 11 54 69 184 100 225 108 140 269 254 405 288 66 16 67 16
160 0z m212 -278 c57 -32 76 -54 118 -137 26 -52 26 -56 15 -120 -15 -83 -27
-118 -57 -158 -22 -30 -29 -33 -79 -33 -64 0 -72 15 -11 25 62 11 104 59 112
129 14 108 -23 189 -125 272 -38 32 -70 60 -70 62 0 8 47 -12 97 -40z m427
-161 c-9 -150 -15 -164 -113 -260 -101 -99 -154 -127 -238 -127 -78 0 -96 13
-41 29 128 39 182 84 240 201 20 41 49 89 63 105 31 35 75 117 75 140 0 9 4
13 10 10 6 -4 8 -42 4 -98z m-999 7 c-63 -138 -98 -277 -131 -519 -17 -132
-25 -684 -12 -895 l7 -115 -18 55 c-11 30 -24 93 -31 140 -6 47 -15 114 -20
150 -5 36 -8 178 -7 315 3 229 6 265 35 427 31 178 63 291 108 382 26 53 84
130 91 122 2 -2 -8 -30 -22 -62z m478 -46 c29 -29 66 -60 82 -68 58 -29 61
-67 10 -106 -35 -26 -38 -27 -138 -20 l-102 6 -48 53 c-65 69 -90 118 -74 141
21 28 115 56 170 51 43 -4 55 -10 100 -57z m-6476 -204 c3 -9 2 -32 -3 -52
-11 -42 -30 -50 -144 -63 -41 -4 -113 -12 -160 -17 -47 -5 -96 -13 -110 -17
-80 -22 135 74 280 126 120 43 128 45 137 23z m6281 -234 c43 -21 56 -34 25
-24 -50 16 -73 27 -73 35 0 12 0 12 48 -11z m192 -128 c145 -74 209 -116 260
-167 30 -30 60 -55 66 -55 7 0 22 -12 34 -27 25 -32 107 -124 173 -196 88 -94
155 -286 182 -519 17 -143 5 -196 -57 -271 -13 -15 -36 -44 -53 -66 -16 -21
-46 -50 -67 -65 l-36 -26 13 43 c8 23 21 65 30 92 11 34 17 91 18 175 1 123 1
126 -30 180 -17 30 -65 120 -106 200 -70 136 -146 278 -194 362 -35 59 -175
228 -247 296 -36 35 -66 66 -66 68 0 10 30 1 80 -24z m-350 -62 c36 -5 110 -7
165 -4 l100 7 31 -44 c118 -170 215 -365 236 -474 12 -65 22 -245 14 -245 -3
0 -48 42 -99 93 -50 52 -115 112 -144 133 -28 21 -83 65 -122 97 -38 31 -72
57 -75 57 -4 0 -6 -8 -6 -19 0 -10 16 -31 35 -45 46 -35 80 -72 96 -105 8 -14
31 -53 51 -87 38 -61 46 -84 29 -84 -26 0 -230 70 -309 106 -29 13 -56 24 -60
24 -24 0 -65 50 -73 90 -24 112 -48 378 -41 459 l5 64 51 -6 c28 -4 80 -11
116 -17z m527 -318 c31 -63 67 -127 79 -141 11 -14 33 -62 48 -106 33 -96 42
-119 66 -165 10 -20 30 -79 44 -132 32 -115 36 -264 11 -371 -20 -87 -116
-320 -126 -310 -5 5 -15 45 -23 88 -15 88 -53 189 -92 249 -21 30 -24 43 -16
60 5 11 15 39 21 61 6 22 16 58 22 80 11 42 30 219 30 295 1 82 -27 235 -52
282 -5 10 -9 27 -9 37 0 11 -4 23 -10 26 -5 3 -10 15 -10 27 0 11 -8 32 -18
46 -10 15 -31 52 -46 82 l-28 55 26 -24 c14 -13 51 -76 83 -139z m-5660 18
c61 -11 154 -46 265 -100 66 -33 94 -55 190 -155 176 -183 321 -408 334 -520
9 -75 52 -211 91 -288 38 -77 219 -348 299 -448 58 -73 163 -180 243 -249 29
-25 71 -62 94 -82 40 -36 55 -43 85 -39 6 1 12 -2 12 -6 0 -5 32 -19 72 -33
41 -14 90 -40 114 -60 23 -19 66 -48 95 -65 l54 -29 -50 -7 c-27 -4 -69 -11
-92 -17 -38 -9 -43 -8 -48 9 -7 21 -21 25 -120 34 -111 9 -332 55 -425 87
-131 46 -308 138 -359 186 -24 23 -48 42 -52 42 -4 0 -5 8 -2 18 2 10 -8 45
-23 78 -49 106 -195 466 -234 577 -22 60 -50 128 -64 151 -42 73 -85 192 -127
355 -23 90 -48 167 -60 181 -11 14 -34 45 -52 70 -86 118 -150 164 -297 213
-111 37 -219 51 -294 38 -77 -13 -168 -50 -211 -84 -32 -25 -80 -113 -105
-191 -14 -43 -7 -188 12 -265 16 -63 68 -166 120 -237 84 -113 254 -240 352
-264 31 -7 56 -17 56 -22 0 -4 -37 -8 -83 -8 -72 0 -94 5 -165 34 -88 37 -171
101 -240 184 -77 95 -152 311 -152 440 0 123 54 264 127 334 40 38 146 99 217
125 85 31 283 37 423 13z m3226 -110 c63 -53 127 -126 127 -146 0 -40 -122 22
-150 76 -10 20 -42 64 -69 97 -28 34 -51 64 -51 67 0 10 87 -47 143 -94z
m-726 24 c-3 -3 -12 -4 -19 -1 -8 3 -5 6 6 6 11 1 17 -2 13 -5z m298 -169 c44
-15 110 -42 146 -61 66 -35 185 -133 162 -134 -6 0 -56 22 -110 49 -114 57
-210 92 -326 121 -123 31 -148 40 -141 52 12 19 182 2 269 -27z m-1703 -307
c3 -164 0 -302 -7 -368 l-12 -105 -41 85 c-22 47 -48 114 -57 150 -9 36 -21
70 -27 77 -5 7 -11 62 -11 122 -2 75 -6 114 -15 123 -11 11 2 28 70 95 46 45
86 82 89 82 3 1 8 -117 11 -261z m1085 230 c-3 -7 -5 -2 -5 12 0 14 2 19 5 13
2 -7 2 -19 0 -25z m3428 -124 c33 -38 58 -73 57 -79 -2 -5 -10 -48 -18 -95
-13 -74 -22 -113 -40 -168 -3 -9 -15 -3 -40 20 -36 33 -36 33 -30 98 3 40 -1
98 -10 150 -23 129 -26 140 -35 146 -5 3 -9 14 -9 25 0 19 2 19 33 -5 17 -13
59 -55 92 -92z m-1514 63 c53 -32 84 -74 133 -179 121 -260 186 -551 186 -836
-1 -628 -303 -1154 -890 -1546 -69 -47 -159 -103 -201 -125 l-76 -41 -6 -68
c-10 -105 -8 -382 4 -490 20 -189 68 -343 127 -406 113 -121 397 -66 529 102
54 68 60 87 73 252 47 590 189 1106 385 1399 66 98 187 211 266 249 109 52
237 59 317 18 40 -21 87 -78 101 -125 44 -148 -63 -576 -256 -1031 -110 -257
-298 -590 -407 -719 -34 -40 -37 -49 -34 -95 l3 -51 37 2 c143 9 256 166 513
718 242 519 385 775 522 937 91 109 271 235 400 281 151 54 373 68 490 29 267
-86 403 -380 403 -869 l0 -114 53 -24 c74 -35 164 -34 235 1 60 30 129 102
173 184 36 64 91 100 154 100 43 0 55 -20 55 -92 -1 -132 -55 -261 -156 -368
-101 -106 -225 -160 -368 -160 -45 0 -156 19 -206 35 -13 4 -20 -4 -29 -37
-23 -77 -118 -262 -192 -373 -84 -126 -238 -290 -354 -377 -88 -67 -226 -137
-320 -163 -85 -23 -249 -31 -316 -15 -167 39 -273 144 -309 306 -26 115 -2
360 49 495 11 27 44 86 74 131 251 377 648 542 1084 452 41 -8 78 -12 82 -9 3
4 6 79 6 168 -1 125 -5 177 -19 227 -28 100 -65 167 -122 220 -60 54 -107 70
-211 70 -189 0 -363 -104 -525 -314 -137 -177 -247 -384 -433 -816 -243 -566
-370 -771 -519 -841 -191 -89 -388 -75 -466 33 -16 22 -30 44 -32 50 -2 6 -33
-10 -69 -36 -91 -67 -269 -153 -369 -177 -121 -31 -243 -24 -334 19 -159 75
-269 242 -331 507 -41 172 -75 380 -87 536 l-12 147 -33 -16 c-19 -9 -35 -25
-38 -37 -70 -361 -196 -653 -379 -881 -118 -147 -239 -245 -403 -326 l-103
-51 -132 -5 c-287 -10 -484 81 -582 267 -96 183 -89 385 21 611 124 257 445
448 902 540 120 24 377 60 429 60 17 0 15 25 -12 132 -76 301 -203 462 -407
514 -158 41 -334 -24 -503 -186 -146 -139 -276 -332 -531 -790 -303 -544 -409
-705 -562 -855 -115 -113 -289 -195 -513 -241 -116 -24 -331 -25 -420 -1 -260
69 -424 257 -489 562 -15 68 -31 209 -31 267 0 27 -3 48 -7 48 -5 0 -57 -16
-118 -35 -60 -19 -113 -35 -118 -35 -4 0 -6 75 -5 167 l3 167 105 22 c189 40
169 28 218 129 293 611 678 955 1066 955 176 0 280 -43 402 -164 186 -185 212
-426 69 -641 -51 -76 -177 -191 -272 -247 -233 -138 -548 -226 -974 -273 l-57
-6 -6 -67 c-6 -72 5 -213 24 -281 20 -75 48 -130 92 -177 60 -65 105 -85 233
-100 327 -41 565 89 810 441 83 121 144 226 330 574 176 330 255 463 359 601
171 228 361 369 563 416 111 26 283 15 403 -25 282 -95 471 -322 556 -666 42
-170 32 -153 85 -138 l45 13 18 113 c27 175 121 633 171 837 188 758 412 1278
654 1521 129 128 247 169 332 116z m1283 -36 c38 -11 74 -25 79 -30 15 -15 19
-91 5 -91 -13 0 -70 18 -113 35 -16 7 -48 19 -70 26 -53 18 -115 56 -115 71 0
9 3 9 12 0 18 -18 58 -15 58 4 0 20 45 16 144 -15z m-267 -32 c15 -7 42 -18
58 -25 46 -19 247 -84 262 -84 30 0 63 -48 63 -90 0 -42 -9 -50 -30 -25 -22
26 -164 112 -215 130 -28 9 -71 19 -96 22 -60 7 -67 12 -75 51 -7 36 -6 37 33
21z m-2482 -93 c94 -23 265 -105 265 -127 0 -4 -25 -22 -56 -40 l-57 -32 -55
27 c-108 53 -140 60 -272 61 -105 0 -136 -4 -195 -23 -38 -13 -80 -30 -93 -38
-12 -8 -27 -12 -33 -8 -17 10 0 96 22 120 18 20 117 57 179 67 60 10 239 6
295 -7z m1685 -21 c0 -5 -5 -3 -10 5 -5 8 -10 20 -10 25 0 6 5 3 10 -5 5 -8
10 -19 10 -25z m-7145 15 c375 -36 692 -186 955 -449 295 -296 450 -668 450
-1081 0 -214 -31 -385 -105 -575 -95 -245 -293 -505 -512 -669 -82 -62 -240
-152 -325 -186 -48 -20 -55 -26 -48 -40 8 -15 -1 -20 -63 -39 -458 -135 -964
-65 -1352 189 -400 262 -677 691 -734 1135 -22 175 -23 164 14 171 33 6 34 7
39 72 25 279 74 456 181 660 141 265 399 519 664 652 261 130 556 187 836 160z
m9238 -4 c51 -19 76 -42 99 -95 23 -51 23 -52 -68 -101 -34 -19 -68 -30 -77
-27 -30 11 -50 69 -55 155 l-5 82 34 0 c19 -1 51 -7 72 -14z m-4367 -64 c-12
-11 -17 7 -9 34 l8 29 3 -28 c2 -16 1 -31 -2 -35z m-343 33 c-3 -9 -8 -14 -10
-11 -3 3 -2 9 2 15 9 16 15 13 8 -4z m314 -102 c-3 -10 -5 -2 -5 17 0 19 2 27
5 18 2 -10 2 -26 0 -35z m4873 27 c-87 -31 -189 -87 -220 -120 -3 -3 -27 -22
-55 -42 -27 -20 -79 -67 -115 -105 -132 -140 -329 -385 -330 -410 0 -6 -4 -13
-8 -15 -17 -6 -71 -91 -65 -101 3 -6 1 -7 -5 -3 -12 7 -16 -5 -12 -34 1 -8 -1
-12 -5 -8 -12 12 -45 -38 -45 -66 0 -14 -4 -26 -10 -26 -5 0 -10 -6 -10 -12 0
-21 -53 -117 -62 -112 -4 3 -8 -3 -8 -14 0 -20 -23 -72 -50 -112 -9 -14 -22
-47 -30 -75 -17 -67 -33 -118 -40 -127 -3 -4 -5 93 -5 215 0 122 -3 278 -8
347 -5 84 -4 118 2 103 14 -31 17 -29 38 15 26 55 445 466 511 501 14 7 42 25
62 40 64 46 334 161 380 162 14 0 34 4 45 9 11 5 38 9 60 9 l40 0 -55 -19z
m-5612 -120 c13 -41 29 -91 34 -110 5 -19 13 -48 18 -65 42 -145 48 -196 24
-216 -9 -8 -27 -31 -40 -51 -14 -21 -28 -38 -32 -38 -4 0 -22 18 -39 41 l-32
41 6 142 c4 89 2 166 -6 209 -10 57 -9 71 4 98 9 16 21 29 27 27 6 -2 22 -38
36 -78z m743 43 c-12 -20 -14 -14 -5 12 4 9 9 14 11 11 3 -2 0 -13 -6 -23z
m3302 -54 c21 -6 56 -26 78 -46 58 -52 143 -180 161 -243 9 -30 30 -101 47
-156 57 -187 55 -267 -9 -509 -59 -224 -83 -280 -155 -365 -26 -30 -56 -66
-67 -79 -27 -32 -48 -13 -25 22 28 43 178 400 200 477 43 151 22 450 -44 625
-25 65 -127 185 -176 207 -57 25 -173 24 -206 -2 -17 -13 -34 -18 -54 -15 -38
7 -123 -45 -176 -108 -34 -40 -41 -56 -45 -102 -5 -60 -20 -71 -46 -33 -25 36
-19 68 28 148 67 114 96 137 207 165 52 13 105 26 119 28 31 6 112 -1 163 -14z
m1000 -25 c-4 -12 -33 -28 -33 -19 0 2 5 16 11 32 8 21 12 24 19 14 4 -8 6
-20 3 -27z m301 -156 c53 -250 46 -470 -24 -689 -41 -127 -142 -312 -160 -293
-4 5 -15 37 -24 71 -15 59 -14 63 10 140 78 240 89 396 48 669 -6 38 -3 44 52
107 33 37 64 67 71 67 6 0 18 -33 27 -72z m-4977 -201 c5 -60 4 -67 -11 -61
-31 12 -19 -59 26 -153 23 -48 45 -90 48 -93 3 -3 15 -23 27 -45 11 -22 35
-66 52 -98 17 -31 31 -68 31 -80 0 -13 6 -29 13 -36 24 -26 -36 0 -81 34 -78
60 -331 310 -337 333 -10 41 32 117 98 174 33 29 72 64 86 78 14 14 29 23 34
20 4 -4 10 -37 14 -73z m4795 -3 c12 -68 9 -226 -7 -313 -19 -109 -55 -223
-69 -218 -24 8 -29 104 -12 207 9 54 16 141 16 192 1 141 53 238 72 132z
m-142 -87 c0 -12 -43 -126 -69 -181 -47 -103 -93 -244 -102 -316 -4 -36 -12
-100 -17 -143 -12 -102 -22 -111 -115 -112 -52 -1 -80 -6 -99 -19 -34 -22 -36
-10 -9 43 10 20 43 86 72 146 30 61 57 112 62 113 4 2 7 12 7 23 0 10 5 19 10
19 6 0 10 5 10 10 0 9 83 157 216 387 16 27 34 43 34 30z m-17 -314 c6 -102
43 -258 91 -387 37 -97 37 -97 -31 -79 -32 8 -62 21 -66 29 -9 16 -47 18 -92
6 -40 -12 -57 -5 -46 16 9 19 25 99 42 212 6 41 19 100 29 130 9 30 25 83 35
117 10 34 21 60 25 58 4 -2 10 -48 13 -102z m-1234 24 c114 -76 101 -246 -24
-307 -88 -43 -191 -6 -235 85 -78 160 109 321 259 222z m-5985 -139 c-5 -8
-10 -6 -15 8 -14 35 -10 50 7 26 8 -12 12 -27 8 -34z m238 -45 c28 -17 30 -17
39 0 14 25 29 22 102 -22 113 -69 255 -137 367 -177 36 -12 107 -39 159 -59
52 -20 119 -39 150 -43 40 -5 57 -12 59 -23 10 -53 -315 -26 -481 40 -89 36
-307 143 -351 173 -61 41 -86 71 -86 100 0 33 3 34 42 11z m5345 -49 c9 -23
-37 -115 -56 -112 -24 5 -24 32 -2 83 20 46 46 59 58 29z m-1814 -171 c-7 -2
-21 -2 -30 0 -10 3 -4 5 12 5 17 0 24 -2 18 -5z m-1923 -53 c0 -5 -9 -10 -21
-10 -11 0 -17 5 -14 10 3 6 13 10 21 10 8 0 14 -4 14 -10z m-305 -92 c28 -11
73 -23 100 -27 75 -12 500 -138 543 -161 20 -11 41 -20 47 -20 5 0 27 -5 49
-11 27 -8 35 -14 28 -21 -8 -8 -15 -8 -24 -1 -7 6 -46 14 -86 17 -150 15 -486
110 -671 191 -42 18 -95 38 -118 44 -24 7 -43 14 -43 17 0 11 127 -10 175 -28z
m-5260 -55 c28 -233 65 -383 134 -543 87 -203 205 -375 366 -535 258 -259 553
-411 930 -482 64 -12 144 -17 280 -17 210 0 315 14 487 65 54 16 101 29 106
29 14 0 105 -142 95 -150 -33 -29 -281 -94 -439 -115 -587 -77 -1169 121
-1589 540 -317 316 -509 727 -551 1183 l-7 72 91 0 91 0 6 -47z m4030 -202
c50 -30 108 -66 130 -81 30 -21 48 -27 70 -22 l29 5 -38 -44 c-20 -24 -63 -74
-93 -111 -46 -55 -60 -65 -74 -57 -10 5 -33 9 -52 9 -19 0 -61 8 -93 19 -33
10 -94 29 -136 41 -45 13 -78 28 -78 36 0 7 11 78 25 158 14 80 25 168 25 196
l0 50 98 -73 c53 -40 138 -97 187 -126z m-4291 137 c32 -203 32 -206 19 -214
-10 -7 -11 -17 -3 -44 6 -19 8 -47 4 -62 -5 -25 -3 -28 19 -28 14 0 27 -7 31
-17 3 -10 9 -24 12 -32 5 -11 1 -13 -16 -8 -21 5 -22 4 -16 -36 4 -23 13 -47
22 -53 8 -7 16 -25 18 -41 2 -16 13 -45 25 -66 11 -20 17 -38 13 -41 -4 -2
-47 -14 -97 -25 -106 -26 -127 -33 -221 -78 -39 -18 -76 -33 -82 -33 -41 0
-132 -76 -207 -175 -98 -129 -100 -134 -100 -270 1 -113 6 -144 40 -240 16
-44 -49 62 -73 119 -23 55 -25 73 -23 184 1 108 4 129 27 180 15 31 32 71 40
87 11 26 50 87 131 205 60 89 215 213 343 276 47 24 92 61 81 68 -13 9 -101
-5 -114 -18 -7 -6 -25 -18 -42 -26 -48 -24 -176 -115 -223 -159 -25 -24 -49
-38 -57 -34 -11 3 -15 -2 -15 -17 0 -20 -36 -73 -93 -135 -10 -11 -20 -30 -23
-42 -4 -13 -10 -23 -15 -23 -5 0 -9 -7 -9 -15 0 -8 -4 -15 -10 -15 -5 0 -10
-4 -10 -9 0 -5 -16 -43 -35 -84 -47 -104 -60 -184 -45 -293 6 -47 15 -93 19
-102 5 -10 26 -53 47 -96 29 -59 58 -99 111 -152 39 -40 85 -80 102 -89 76
-39 -4 -29 -86 10 -28 14 -58 37 -68 51 -12 19 -22 23 -38 19 -15 -4 -18 -3
-8 3 10 8 8 13 -10 26 -13 9 -33 16 -44 16 -11 0 -32 11 -45 25 -14 14 -38 38
-54 53 -62 59 -206 299 -206 344 0 21 16 24 23 6 3 -7 6 44 6 114 1 73 5 129
11 133 6 3 10 20 10 36 0 17 11 45 25 63 14 18 25 36 25 41 0 4 15 28 33 54
18 25 44 64 57 86 23 39 23 39 2 21 -12 -11 -22 -15 -22 -10 0 17 47 64 64 64
9 0 15 3 15 8 -1 4 -1 13 0 20 2 19 166 180 231 227 30 22 57 43 58 47 2 5 8
8 13 8 5 0 30 15 56 34 63 44 140 86 158 86 8 0 15 5 15 10 0 6 7 10 15 10 9
0 26 6 38 14 57 37 114 65 129 66 12 0 19 -10 22 -32z m5795 -213 c78 -17 249
-35 327 -35 l56 0 -32 -40 c-26 -33 -35 -38 -50 -30 -30 16 -37 12 -68 -32
-17 -24 -42 -56 -58 -73 -39 -42 -84 -116 -84 -137 0 -10 -10 -38 -21 -61 -37
-72 -208 -344 -245 -389 -20 -23 -47 -64 -61 -92 -34 -68 -126 -208 -147 -225
-10 -8 -25 -16 -34 -17 -36 -5 -59 -13 -92 -32 -19 -12 -57 -28 -85 -36 -27
-9 -64 -21 -81 -26 -17 -6 -78 -11 -135 -11 -84 -1 -114 3 -159 21 -30 12 -61
26 -67 32 -7 6 -19 8 -27 5 -8 -3 -20 1 -26 8 -15 18 -25 14 155 55 355 82
604 205 770 382 198 210 236 477 100 702 -23 39 -30 56 -19 52 9 -4 46 -13 83
-21z m1329 -165 c6 -11 31 -29 54 -41 133 -68 241 -248 198 -330 -8 -14 -21
-19 -48 -18 -89 3 -311 -34 -386 -64 -34 -14 -108 -42 -166 -62 -58 -21 -138
-53 -179 -71 -41 -19 -81 -34 -90 -34 -52 0 -297 -224 -359 -328 -112 -188
-159 -415 -120 -581 10 -43 9 -56 -6 -89 -21 -45 -14 -103 16 -142 18 -23 18
-25 2 -37 -9 -7 -40 -20 -68 -29 -79 -25 -186 -92 -244 -153 -61 -64 -218
-262 -307 -386 -88 -123 -144 -221 -285 -500 -119 -237 -138 -267 -289 -467
l-28 -38 -58 87 c-54 81 -56 87 -39 100 10 7 34 13 55 13 30 0 47 9 88 46 43
39 65 73 130 203 43 86 96 190 118 231 22 41 53 109 68 150 15 41 36 94 46
117 11 24 19 48 19 54 0 6 21 50 46 98 120 222 164 313 164 334 0 53 155 279
287 419 50 54 107 117 126 140 38 49 132 213 263 461 49 93 94 176 99 185 73
124 150 225 262 345 251 271 403 381 548 397 33 4 62 8 65 9 3 0 11 -8 18 -19z
m-7017 -127 c-9 -15 -10 -12 -10 17 0 29 1 32 10 18 7 -12 7 -24 0 -35z m61
-115 c6 -13 5 -18 -7 -18 -10 0 -15 10 -14 33 0 17 3 25 6 17 3 -8 10 -23 15
-32z m8578 -190 c0 -22 -29 -146 -64 -272 -22 -80 -90 -250 -125 -311 -15 -27
-36 -52 -46 -53 -16 -4 -17 3 -12 91 2 52 10 110 16 128 40 127 58 174 94 249
22 46 44 89 49 95 5 5 22 29 38 53 33 47 50 53 50 20z m-8597 -73 c-2 -10
-215 -96 -245 -99 -54 -4 14 55 108 93 50 21 141 25 137 6z m190 -180 c-2 -10
-84 -34 -116 -35 -29 0 -14 24 24 37 39 14 95 13 92 -2z m3377 -96 l0 -72 -53
-51 c-29 -28 -70 -77 -91 -109 -44 -67 -59 -76 -86 -52 -10 9 -24 14 -29 10
-21 -13 -10 -54 25 -97 66 -78 81 -138 36 -138 -27 0 -74 76 -68 109 6 27 -16
67 -32 57 -13 -8 -45 18 -77 64 l-28 41 49 43 c43 38 50 41 61 27 11 -14 16
-12 49 21 44 43 41 57 -7 33 -31 -16 -30 -15 17 39 27 31 69 69 94 84 44 26
117 60 133 61 4 1 7 -31 7 -70z m8477 -24 c-89 -78 -105 -154 -52 -241 20 -32
47 -58 75 -74 83 -45 215 -25 273 42 10 11 19 19 21 17 1 -2 20 -32 41 -66 37
-62 37 -62 25 -115 -17 -72 -47 -135 -87 -182 -18 -22 -33 -44 -33 -48 0 -5
-11 -24 -25 -42 -14 -18 -25 -38 -25 -44 0 -7 -4 -12 -10 -12 -5 0 -10 -4 -10
-9 0 -6 -14 -25 -31 -43 -17 -18 -49 -58 -72 -88 -62 -84 -153 -170 -242 -230
-44 -30 -111 -77 -150 -105 -98 -71 -137 -86 -268 -107 -61 -9 -88 -9 -123 0
-24 7 -60 12 -79 12 -18 0 -37 5 -40 10 -3 6 -15 10 -26 10 -11 0 -17 5 -14
10 3 6 -1 10 -10 10 -10 0 -13 -5 -9 -12 4 -7 3 -8 -4 -4 -7 4 -12 12 -12 18
0 6 -22 32 -50 58 -27 26 -50 51 -50 54 0 4 -10 17 -22 30 -33 33 -69 76 -103
121 -16 22 -33 42 -37 43 -4 2 -8 10 -8 18 0 8 -4 14 -10 14 -5 0 -10 5 -10
12 0 6 -8 21 -17 32 -10 12 -2 7 17 -10 78 -68 316 -213 402 -245 98 -35 265
-22 366 30 23 12 48 21 57 21 24 0 129 111 154 162 12 25 31 56 41 68 17 20
20 38 20 129 0 88 -4 118 -25 175 -14 38 -25 85 -25 104 0 22 -10 46 -29 71
-15 20 -26 42 -24 49 3 6 -3 12 -12 12 -10 0 -13 5 -9 12 5 8 2 9 -11 4 -14
-5 -16 -4 -7 7 9 11 3 21 -26 47 -20 19 -43 33 -49 32 -7 -2 -13 4 -13 13 0 8
-5 15 -11 15 -6 0 -9 7 -6 14 6 15 -20 29 -53 30 -9 1 -15 11 -15 26 0 24 3
25 76 31 137 11 289 75 353 147 15 17 21 19 38 9 18 -11 17 -13 -15 -42z m208
-21 c19 -9 46 -32 61 -51 24 -31 26 -41 21 -90 -7 -65 -9 -68 -34 -53 -25 16
-121 154 -129 185 -5 22 -3 25 21 25 15 0 42 -7 60 -16z m-756 -91 c9 -15 12
-16 20 -4 11 17 41 7 41 -14 0 -8 -4 -15 -10 -15 -5 0 -10 5 -10 11 0 6 -8 8
-18 4 -21 -6 -76 18 -65 28 12 12 32 7 42 -10z m14 -79 c55 -28 94 -58 162
-128 109 -111 142 -168 155 -268 28 -213 3 -348 -81 -436 -74 -80 -181 -114
-354 -116 l-130 -1 -156 99 c-86 54 -174 114 -195 133 l-39 34 50 42 c205 172
339 340 462 583 27 52 49 94 51 94 1 0 35 -16 75 -36z m-6997 -80 c36 -73 38
-81 38 -177 1 -100 0 -103 -39 -174 -45 -82 -59 -88 -113 -47 l-34 27 26 24
c60 56 87 177 57 256 -20 52 -106 117 -153 117 -18 0 -28 5 -28 14 0 10 19 16
68 21 37 4 72 8 77 10 6 2 22 4 37 4 24 1 31 -8 64 -75z m7134 66 c0 -5 -2
-10 -4 -10 -3 0 -8 5 -11 10 -3 6 -1 10 4 10 6 0 11 -4 11 -10z m-4085 -297
c-9 -287 -29 -407 -113 -674 -21 -66 -32 -128 -37 -200 -4 -57 -16 -131 -27
-164 -30 -92 -149 -332 -242 -489 -46 -78 -103 -179 -126 -226 -46 -93 -75
-131 -173 -232 -35 -36 -75 -85 -88 -109 -26 -45 -29 -48 -99 -77 -171 -73
-235 -84 -407 -71 -139 10 -176 19 -303 74 -47 20 -94 40 -105 45 -11 4 -38
28 -61 52 -136 146 -161 234 -130 473 15 116 21 138 58 207 25 46 65 100 99
134 53 53 59 56 74 40 12 -11 34 -16 77 -16 l61 0 -47 -41 c-112 -99 -184
-247 -197 -408 -13 -165 12 -244 103 -325 75 -66 127 -89 222 -96 180 -13 332
25 450 113 39 29 82 60 96 69 42 26 84 95 81 131 -1 21 13 64 43 127 73 153
148 382 147 454 0 45 3 56 10 44 5 -10 31 -30 57 -45 39 -23 58 -27 117 -27
75 0 113 14 152 56 43 46 53 89 53 226 0 160 -4 167 -89 167 -36 0 -65 -5 -73
-13 -9 -9 -15 -55 -18 -140 -5 -119 -6 -127 -25 -127 -19 0 -20 9 -26 130 -3
72 -7 131 -8 133 0 2 -15 8 -32 14 -22 7 -29 15 -24 27 15 37 35 156 35 204 1
50 3 54 46 87 151 117 333 370 426 595 23 57 45 105 46 105 2 0 1 -102 -3
-227z m-3748 170 c-3 -3 -40 -7 -83 -9 -43 -2 -75 -2 -72 2 4 3 39 16 80 28
71 22 73 22 76 4 2 -11 1 -22 -1 -25z m1183 13 c0 -3 -4 -8 -10 -11 -5 -3 -10
-1 -10 4 0 6 5 11 10 11 6 0 10 -2 10 -4z m-1264 -111 c4 -8 -2 -27 -11 -42
-13 -20 -16 -40 -13 -82 6 -70 2 -81 -27 -81 -34 0 -48 33 -43 97 4 44 11 60
38 88 37 39 48 42 56 20z m-994 -286 l167 -254 -45 -42 c-25 -24 -52 -43 -60
-43 -8 0 -14 -4 -14 -8 0 -5 -16 -17 -35 -28 -31 -16 -40 -27 -32 -37 1 -2
-44 -48 -100 -103 -57 -55 -103 -103 -103 -107 0 -3 -25 -45 -55 -92 l-55 -85
-49 0 c-55 0 -105 -15 -97 -29 11 -17 -28 -22 -41 -5 -11 15 -14 14 -43 -6
-38 -27 -31 -40 21 -40 21 0 39 -4 39 -9 0 -9 63 -6 81 4 8 6 7 10 -2 16 -11
8 -10 12 5 24 11 8 28 15 37 15 16 0 16 -3 -3 -41 -11 -23 -21 -49 -23 -58 -5
-22 -24 -71 -28 -71 -14 0 -127 64 -142 80 -10 11 -15 20 -12 20 16 0 -33 37
-75 57 -26 12 -89 59 -140 105 -51 45 -82 70 -69 55 14 -15 22 -29 19 -32 -6
-7 -135 125 -154 157 -12 21 -30 58 -54 113 -45 105 -68 398 -34 436 13 14 13
22 4 39 -7 13 -9 37 -5 56 l6 34 147 0 c240 0 468 36 659 103 54 19 103 34
108 33 6 -2 85 -117 177 -257z m1126 129 c19 -75 19 -78 2 -78 -40 0 -48 10
-43 53 7 67 14 109 18 106 2 -2 12 -39 23 -81z m-2753 12 c39 -15 118 -43 175
-61 114 -35 140 -47 140 -66 0 -20 -21 -16 -151 27 -142 48 -235 91 -281 132
l-33 28 40 -16 c22 -8 72 -28 110 -44z m11411 -5 c14 -39 23 -73 44 -156 11
-43 -2 -109 -21 -109 -5 0 -9 -7 -9 -15 0 -8 -4 -23 -9 -33 -5 -9 -17 -35 -26
-57 -32 -78 -35 -85 -47 -112 -7 -16 -19 -34 -26 -41 -6 -8 -17 -23 -23 -34
-21 -39 -39 -58 -146 -153 -25 -22 -60 -53 -78 -70 -68 -62 -208 -165 -225
-165 -6 0 -10 -3 -10 -7 0 -5 -10 -13 -23 -19 -12 -6 -53 -27 -92 -47 -38 -19
-91 -44 -117 -56 -26 -12 -50 -25 -53 -31 -10 -16 -111 -12 -129 5 -8 8 -26
15 -41 15 -14 0 -28 7 -31 15 -4 10 -20 15 -44 15 -22 0 -42 5 -45 10 -3 6
-19 10 -36 10 -16 0 -29 4 -29 8 0 4 -29 21 -64 37 -36 16 -62 33 -60 37 5 8
-72 49 -126 67 -42 13 -156 119 -194 180 -41 65 -78 132 -74 136 2 2 50 -30
108 -72 98 -70 172 -111 230 -127 14 -4 34 -11 45 -15 37 -15 109 -29 212 -42
84 -11 112 -11 155 0 29 8 58 17 63 21 6 4 33 15 60 26 104 38 252 126 315
186 85 81 280 296 331 365 31 41 76 114 100 162 24 47 48 92 54 98 19 24 46 9
61 -32z m-8956 -93 c0 -5 -18 -12 -39 -14 -29 -2 -42 1 -50 14 -9 15 -7 19 14
24 30 7 34 34 5 34 -19 0 -40 27 -40 52 0 7 25 -12 55 -44 30 -31 55 -61 55
-66z m384 -136 c14 -25 26 -47 26 -49 0 -3 -28 -8 -62 -12 -73 -9 -189 -55
-203 -82 -26 -47 -26 -46 -86 44 -32 48 -59 93 -59 99 0 12 142 33 250 37 41
2 82 4 92 5 10 1 26 -15 42 -42z m3874 -18 c62 -110 188 -221 284 -250 32 -9
37 -14 32 -32 -16 -49 -36 -123 -41 -148 -4 -20 -11 -28 -27 -28 -37 0 -120
-45 -154 -84 l-32 -37 0 36 c0 49 -14 72 -49 80 -26 5 -29 11 -36 58 -7 53
-16 457 -10 457 2 0 16 -24 33 -52z m3076 -228 c40 -58 97 -131 126 -163 28
-31 46 -57 39 -57 -26 0 -178 94 -251 156 -42 35 -82 64 -87 64 -31 0 -3 -90
56 -183 24 -37 43 -70 43 -72 0 -3 -15 -5 -33 -5 -38 0 -57 -15 -57 -46 0 -12
-6 -24 -12 -26 -11 -4 -96 17 -104 25 -2 2 3 57 11 122 8 66 15 147 15 182 l0
63 78 39 c71 37 78 39 90 23 7 -9 46 -64 86 -122z m-6779 44 c32 -28 37 -37
25 -44 -8 -5 -21 -10 -29 -10 -22 0 -150 -48 -228 -86 -39 -19 -73 -34 -76
-34 -2 0 -21 25 -42 56 -27 42 -34 59 -24 64 18 12 293 87 324 89 6 0 28 -16
50 -35z m4715 9 c78 -21 183 -78 243 -132 53 -48 130 -157 121 -172 -3 -5 -17
-9 -32 -9 -22 0 -33 10 -57 51 -42 70 -133 155 -202 186 -65 30 -110 41 -203
49 -36 3 -67 8 -69 10 -2 2 16 12 40 23 46 21 64 20 159 -6z m3740 -77 c-16
-82 -40 -187 -50 -211 -18 -47 -65 -140 -72 -143 -4 -2 -8 -8 -8 -12 0 -14
-109 -169 -174 -247 l-58 -71 -102 -6 c-112 -7 -203 3 -386 43 -3 1 15 11 40
23 25 11 61 29 80 39 19 10 71 36 115 58 132 67 397 292 491 416 17 22 53 79
80 126 54 96 65 92 44 -15z m-1971 12 c0 -29 -4 -71 -8 -93 l-8 -40 -7 40 c-4
22 -12 59 -18 82 -11 47 -6 63 23 63 16 0 19 -7 18 -52z m-4503 -9 c181 -124
515 -159 707 -73 20 10 39 15 41 13 5 -5 -34 -126 -47 -146 -5 -7 -22 -13 -38
-13 -22 0 -32 -7 -41 -26 -12 -25 -12 -25 -20 -5 -10 28 -54 44 -102 38 -52
-7 -68 -26 -74 -86 -4 -46 -7 -51 -28 -51 -22 0 -24 4 -24 49 0 42 -4 53 -27
71 -23 18 -37 21 -77 17 -60 -5 -76 -24 -76 -86 l0 -46 -25 37 c-42 61 -112
89 -248 95 -107 5 -115 5 -136 -16 -19 -19 -21 -32 -21 -141 l0 -120 -37 23
c-52 33 -198 77 -255 77 -52 0 -55 15 -15 72 79 114 141 171 247 228 25 13 54
32 65 41 17 15 155 75 178 78 5 1 28 -13 53 -30z m2787 -43 c79 -38 187 -127
211 -175 8 -14 11 -41 9 -59 -4 -26 -9 -32 -22 -26 -9 5 -32 8 -53 9 -20 0
-35 2 -33 4 9 8 -36 80 -72 115 -46 45 -117 79 -199 96 -76 15 -182 4 -272
-30 -18 -7 -35 -10 -38 -8 -2 3 3 21 11 41 26 63 76 77 261 73 116 -3 123 -4
197 -40z m-7692 -48 c46 -46 105 -109 132 -140 46 -55 47 -58 47 -124 0 -58
-4 -72 -27 -103 -16 -20 -42 -66 -60 -103 -30 -62 -36 -68 -75 -79 -54 -15
-170 -91 -223 -144 -21 -22 -43 -39 -47 -38 -4 2 -8 -4 -8 -12 0 -8 -4 -15
-10 -15 -5 0 -10 -6 -10 -14 0 -8 -7 -16 -15 -20 -8 -3 -15 -12 -15 -21 0 -8
-4 -15 -10 -15 -5 0 -10 -9 -10 -20 0 -11 -3 -20 -8 -20 -8 0 -23 -39 -53
-140 -36 -120 -22 -226 48 -360 49 -95 109 -162 222 -247 l73 -56 82 6 c145
11 185 23 268 85 142 107 162 128 284 305 26 37 51 67 55 67 12 0 12 2 -8 -56
-35 -105 -167 -295 -246 -354 -26 -20 -94 -59 -151 -88 -86 -42 -117 -52 -183
-59 -159 -17 -397 55 -575 174 -104 69 -272 240 -347 351 -56 84 -63 101 -68
158 -6 61 10 144 27 144 4 0 12 -10 19 -23 21 -39 89 -77 138 -77 86 0 155 57
188 154 14 42 15 54 3 94 -13 45 -54 99 -92 119 -18 10 -14 16 43 69 35 32 90
78 124 103 63 46 362 231 375 231 4 1 18 10 31 20 27 24 22 50 -11 50 -28 0
-140 -40 -188 -67 -19 -11 -60 -33 -90 -48 -100 -53 -238 -162 -385 -305 -33
-32 -80 -78 -105 -102 -42 -41 -70 -99 -70 -143 0 -9 -10 -35 -23 -58 -25 -46
-68 -177 -89 -272 -16 -74 -15 -281 1 -338 7 -23 17 -60 23 -82 40 -151 106
-297 183 -399 62 -84 174 -193 230 -227 22 -13 59 -38 83 -56 24 -18 50 -33
58 -33 8 0 14 -5 14 -11 0 -12 -11 -11 -127 10 -174 32 -417 207 -497 360 -84
161 -125 303 -133 466 -4 105 -1 143 26 303 28 166 59 310 78 358 5 13 3 16
-10 11 -25 -9 -21 14 10 70 44 79 47 83 72 83 46 0 78 49 50 77 -13 13 5 43
88 136 30 34 60 76 67 92 17 40 175 188 258 242 36 24 69 43 71 43 3 0 49 21
104 46 54 25 109 51 123 56 l25 9 -25 -28 c-46 -52 -52 -70 -38 -111 16 -48
56 -92 84 -92 33 0 103 41 126 73 11 15 22 45 25 66 5 34 2 41 -33 70 -22 18
-52 35 -68 38 l-29 6 34 18 c62 33 79 26 170 -63z m1829 17 c23 -36 43 -70 44
-77 1 -12 -54 -66 -192 -185 -34 -30 -79 -83 -104 -123 -23 -39 -67 -103 -96
-141 -56 -75 -162 -275 -162 -306 0 -11 -4 -23 -9 -28 -5 -6 -21 -73 -37 -150
-25 -126 -28 -159 -27 -335 1 -196 1 -202 53 -455 30 -146 55 -212 166 -441
19 -39 34 -76 34 -83 0 -27 -81 16 -113 61 -73 97 -181 284 -198 340 -24 78
-37 137 -43 193 -4 33 -14 81 -22 106 -9 29 -12 55 -7 70 10 28 9 55 -6 128
-15 74 -13 236 4 357 23 166 93 343 243 616 90 162 109 194 145 248 40 58 251
270 270 270 8 0 34 -29 57 -65z m-1949 -59 c9 -18 7 -30 -6 -55 -21 -42 -49
-38 -53 6 -6 62 37 98 59 49z m3052 -76 c9 0 18 -4 21 -9 3 -5 18 -11 33 -14
16 -3 57 -16 93 -30 l65 -25 -45 -11 c-105 -27 -205 -64 -235 -87 -17 -13 -37
-24 -44 -24 -6 0 -38 41 -70 91 l-59 92 26 22 c15 12 45 31 67 43 l40 20 46
-34 c26 -19 54 -34 62 -34z m3579 18 c3 -7 2 -78 -1 -158 -6 -136 -7 -145 -26
-145 -18 0 -20 8 -23 100 -3 123 30 259 50 203z m1016 -20 c25 -11 62 -38 83
-59 l38 -38 -6 -78 c-3 -43 -7 -79 -8 -80 -1 -2 -23 45 -49 105 -61 140 -65
144 -123 149 -80 6 -88 -2 -174 -197 -43 -96 -78 -184 -78 -194 -2 -35 28 -56
80 -56 62 0 77 6 95 41 13 26 20 29 64 29 38 0 50 -4 50 -15 0 -30 38 -55 84
-55 l43 0 6 -66 c4 -37 4 -71 1 -75 -3 -5 -33 -9 -67 -9 -57 0 -64 -2 -99 -37
-29 -28 -38 -45 -38 -70 0 -68 43 -110 160 -155 99 -39 145 -42 236 -18 44 12
96 26 118 31 51 13 84 31 137 75 24 20 66 51 94 69 27 17 76 60 109 95 52 56
56 65 42 76 -9 6 -16 16 -15 20 3 21 -2 26 -15 14 -13 -10 -13 -7 -3 19 9 24
19 31 50 36 30 6 45 16 68 47 16 23 29 53 29 68 0 15 7 44 15 63 8 20 15 49
15 64 0 46 9 52 63 40 l47 -12 0 -122 c0 -142 6 -153 76 -153 l45 0 -16 -30
c-8 -16 -15 -38 -15 -49 0 -42 -196 -366 -276 -456 -14 -16 -57 -69 -95 -116
-87 -109 -160 -164 -258 -195 -136 -43 -198 -54 -320 -54 -131 0 -190 14 -317
77 -103 50 -136 81 -176 165 -59 121 -73 171 -99 353 -5 39 -14 84 -20 102
-18 55 23 434 51 468 4 5 11 35 15 65 9 71 17 84 61 105 100 47 204 52 292 13z
m-2546 -80 c57 -31 83 -78 83 -149 0 -63 -16 -94 -72 -136 -34 -26 -43 -28
-155 -32 l-118 -3 0 177 0 178 110 -6 c89 -5 118 -10 152 -29z m248 -38 l0
-70 75 0 74 0 3 68 3 67 40 0 40 0 3 -172 2 -173 -45 0 -45 0 0 70 0 70 -75 0
-75 0 0 -70 0 -70 -40 0 -40 0 0 175 0 175 40 0 40 0 0 -70z m420 -105 l0
-175 -40 0 -40 0 0 175 0 175 40 0 40 0 0 -175z m180 56 c0 -140 11 -165 74
-165 62 0 71 17 74 159 l4 125 40 0 40 0 -4 -134 c-4 -156 -13 -178 -90 -210
-64 -26 -128 -16 -176 29 l-37 33 -3 141 -4 141 41 0 41 0 0 -119z m580 0 c0
-140 11 -165 74 -165 62 0 71 17 74 159 l4 125 40 0 40 0 -4 -134 c-4 -156
-13 -178 -90 -210 -64 -26 -128 -16 -176 29 l-37 33 -3 141 -4 141 41 0 41 0
0 -119z m586 100 c54 -25 61 -37 34 -66 l-22 -23 -32 19 c-99 60 -211 -35
-162 -138 20 -42 72 -67 122 -57 34 6 34 7 34 60 l0 54 40 0 41 0 -3 -72 -3
-73 -40 -20 c-51 -25 -147 -26 -192 -2 -69 37 -109 132 -89 211 9 35 64 96
101 112 43 19 123 17 171 -5z m565 -147 c41 -92 76 -171 77 -175 2 -5 -16 -9
-40 -9 -41 0 -45 2 -57 35 l-12 35 -80 0 -79 0 -17 -35 c-15 -31 -21 -35 -55
-35 -21 0 -38 4 -38 9 0 4 27 68 61 142 33 74 67 149 74 167 12 28 18 32 53
32 l39 0 74 -166z m1329 131 l0 -35 -90 0 -90 0 0 -45 0 -45 80 0 80 0 0 -35
0 -35 -80 0 -80 0 0 -60 0 -60 -40 0 -40 0 0 175 0 175 130 0 130 0 0 -35z
m-5044 -82 c-9 -137 -48 -241 -172 -451 -41 -68 -152 -211 -188 -241 -8 -7
-27 -14 -42 -17 -15 -3 -40 -14 -56 -25 -58 -41 -88 4 -38 56 29 30 31 36 19
51 -12 14 -7 21 39 61 37 32 51 51 47 63 -3 9 1 33 10 53 19 47 20 45 -12 49
-43 5 -41 33 5 61 21 14 46 37 56 52 10 15 50 60 90 101 39 40 108 118 151
173 44 55 84 101 88 101 4 0 6 -39 3 -87z m4184 57 c0 -28 3 -30 35 -30 32 0
35 -2 35 -30 0 -28 -3 -30 -35 -30 l-35 0 0 -57 c0 -70 9 -87 43 -81 21 4 27
0 31 -18 10 -37 9 -39 -24 -45 -87 -18 -130 29 -130 141 0 53 -2 60 -20 60
-16 0 -20 7 -20 30 0 23 4 30 20 30 16 0 20 7 20 30 0 28 2 30 40 30 38 0 40
-2 40 -30z m1630 0 c0 -28 3 -30 35 -30 32 0 35 -2 35 -30 0 -28 -3 -30 -35
-30 l-35 0 0 -57 c0 -70 9 -87 43 -81 21 4 27 0 31 -18 10 -37 9 -39 -24 -45
-87 -18 -130 29 -130 141 0 53 -2 60 -20 60 -16 0 -20 7 -20 30 0 23 4 30 20
30 16 0 20 7 20 30 0 28 2 30 40 30 38 0 40 -2 40 -30z m-7647 -35 l27 -39
-105 -106 c-142 -142 -240 -276 -319 -434 -111 -224 -147 -391 -127 -583 7
-63 14 -142 16 -176 4 -65 7 -75 50 -196 29 -83 48 -122 67 -143 7 -7 33 -40
57 -73 88 -118 138 -168 255 -256 111 -84 153 -106 111 -59 -24 26 -12 37 18
17 32 -21 100 -87 120 -117 31 -45 23 -66 -32 -84 -46 -15 -51 -14 -122 9
-181 58 -212 73 -205 92 5 11 -25 48 -92 117 -171 177 -261 312 -311 469 -94
296 -106 558 -36 842 36 144 70 232 117 300 124 179 184 250 282 331 120 98
189 146 197 136 3 -4 18 -25 32 -47z m5757 0 c0 -14 3 -14 30 0 47 24 60 20
60 -20 0 -29 -4 -35 -20 -35 -12 0 -32 -11 -45 -25 -22 -21 -25 -33 -25 -100
l0 -75 -40 0 -40 0 0 128 c0 71 3 132 7 135 3 4 21 7 40 7 23 0 33 -5 33 -15z
m579 4 c36 -13 35 -10 19 -44 -8 -18 -17 -24 -27 -19 -31 12 -86 15 -101 4
-13 -9 -12 -12 4 -25 11 -8 30 -15 42 -15 30 0 67 -15 87 -35 38 -37 7 -108
-51 -121 -15 -3 -33 -7 -40 -10 -16 -5 -114 14 -125 25 -4 4 -2 20 4 35 9 19
17 25 28 20 9 -4 40 -10 69 -12 47 -3 53 -2 50 14 -2 12 -19 21 -61 29 -32 6
-65 18 -73 27 -35 34 -12 107 41 129 29 11 97 11 134 -2z m798 -9 c49 -29 69
-70 64 -127 -1 -10 -27 -13 -96 -13 -52 0 -95 -3 -95 -7 0 -3 7 -15 17 -25 18
-20 64 -24 95 -7 17 9 24 7 41 -10 19 -19 20 -22 6 -37 -21 -20 -85 -34 -123
-27 -75 14 -119 67 -119 140 0 102 121 167 210 113z m322 9 c36 -13 35 -10 19
-44 -8 -18 -17 -24 -27 -19 -31 12 -86 15 -101 4 -13 -9 -12 -12 4 -25 11 -8
30 -15 42 -15 30 0 67 -15 87 -35 38 -37 7 -108 -51 -121 -15 -3 -33 -7 -40
-10 -16 -5 -114 14 -125 25 -4 4 -2 20 4 35 9 19 17 25 28 20 9 -4 40 -10 69
-12 47 -3 53 -2 50 14 -2 12 -19 21 -61 29 -32 6 -65 18 -73 27 -35 34 -12
107 41 129 29 11 97 11 134 -2z m-8748 -36 c13 -16 12 -17 -3 -4 -10 7 -18 15
-18 17 0 8 8 3 21 -13z m-187 -75 c39 -22 87 -51 106 -63 19 -12 53 -30 75
-40 90 -41 180 -140 155 -170 -9 -11 -18 -9 -54 13 -116 73 -366 273 -366 293
0 15 11 11 84 -33z m7370 -58 c5 -56 3 -75 -10 -95 -24 -37 -34 -30 -34 25 0
35 -4 49 -12 48 -8 -2 -14 11 -16 32 -3 31 1 37 25 47 15 6 31 11 34 12 3 1 9
-31 13 -69z m-5790 15 l28 -46 -64 -67 c-75 -78 -160 -201 -178 -258 -7 -21
-17 -50 -22 -64 -53 -136 -80 -289 -78 -435 1 -66 2 -125 1 -131 -2 -21 -39
-22 -70 -3 -35 21 -62 76 -84 169 -13 56 -13 76 -2 149 8 46 18 96 24 110 5
14 21 63 36 109 29 92 82 188 162 289 69 87 195 222 208 223 6 0 23 -20 39
-45z m3216 -30 c0 -8 -3 -15 -6 -15 -3 0 -12 7 -20 15 -14 13 -13 15 5 15 12
0 21 -6 21 -15z m-230 -30 c0 -16 -6 -25 -15 -25 -18 0 -19 4 -3 30 16 26 18
25 18 -5z m-4789 -43 c49 -34 110 -244 93 -318 -20 -80 -40 -47 -103 171 -19
63 -33 166 -26 182 7 17 8 16 13 -2 2 -11 13 -26 23 -33z m5019 -4 c0 -4 -11
-8 -25 -8 -21 0 -25 5 -25 32 l0 31 25 -23 c14 -13 25 -27 25 -32z m201 -158
c-7 -58 -24 -143 -37 -189 -13 -46 -24 -93 -24 -106 0 -12 -19 -50 -42 -85
l-42 -62 -15 33 c-90 208 -142 294 -253 421 -32 36 -58 69 -58 72 0 3 9 6 21
6 11 0 29 5 39 10 13 7 52 6 120 -1 76 -9 104 -9 113 0 6 6 35 11 65 11 60 0
92 13 92 38 1 11 6 7 17 -13 14 -27 15 -42 4 -135z m1255 128 c5 -7 9 -49 9
-93 1 -44 11 -131 23 -194 12 -63 20 -117 17 -119 -8 -8 -23 8 -28 30 -41 169
-47 202 -47 291 0 90 8 115 26 85z m-4495 -129 c79 -119 81 -122 74 -168 -3
-25 -11 -63 -17 -84 -18 -61 5 -170 62 -291 38 -83 62 -119 119 -178 90 -95
153 -128 246 -128 36 0 75 4 85 10 15 8 24 2 54 -44 55 -83 55 -82 -11 -92
-86 -14 -208 8 -328 57 -98 41 -103 45 -216 160 -153 156 -199 243 -214 409
-4 36 -13 85 -22 109 -16 44 -16 44 -29 20 -7 -13 -13 -32 -14 -41 0 -12 -7
-17 -22 -15 -15 1 -23 -5 -28 -23 -11 -41 8 -234 28 -292 74 -207 93 -238 219
-358 89 -84 181 -145 233 -153 78 -13 164 -37 175 -49 7 -7 15 -25 19 -40 5
-24 2 -28 -42 -45 -34 -13 -74 -18 -147 -18 -94 0 -104 3 -175 37 -55 26 -95
55 -149 109 -114 115 -149 169 -217 344 -36 92 -39 107 -37 190 1 50 8 128 17
175 8 47 22 131 30 187 9 60 23 114 35 133 l19 33 4 -29 c3 -27 6 -24 53 46
53 81 104 150 111 150 2 0 40 -55 85 -121z m4538 18 c-1 -106 -6 -98 -12 20
-2 45 0 80 5 77 4 -3 7 -47 7 -97z m-312 79 c1 -1 -2 -18 -7 -37 -5 -18 -14
-62 -21 -97 -13 -69 -23 -82 -46 -59 -11 11 -16 42 -19 110 l-3 94 47 -5 c26
-2 48 -5 49 -6z m-1575 -98 c29 -22 137 -126 163 -158 64 -78 130 -203 174
-328 21 -59 22 -65 7 -88 -45 -68 -153 -105 -290 -98 -155 7 -272 48 -312 109
-27 41 -15 221 20 305 59 143 105 213 169 257 40 27 33 27 69 1z m1293 -165
c0 -189 13 -311 41 -387 8 -21 13 -41 10 -43 -2 -3 -35 26 -73 64 -78 77 -117
148 -131 238 -11 69 -5 85 57 154 28 31 96 145 96 161 0 0 0 -84 0 -187z
m-6877 104 c54 -55 52 -143 -3 -202 -25 -28 -30 -29 -48 -15 -7 6 -23 19 -37
29 -22 17 -25 27 -23 72 1 59 39 148 64 149 8 0 30 -15 47 -33z m-560 -88
c-39 -76 -58 -127 -58 -154 0 -12 -4 -25 -8 -30 -11 -13 -47 -157 -77 -307
-19 -97 -19 -157 0 -303 15 -114 15 -117 -5 -153 -33 -59 -95 -86 -141 -62
-26 15 -24 35 6 48 33 15 40 51 24 120 -37 161 -15 361 57 520 13 29 24 58 24
64 0 16 96 193 128 237 33 46 75 92 79 88 2 -2 -12 -33 -29 -68z m3720 -62 c2
-71 31 -171 67 -233 22 -37 79 -96 102 -105 10 -4 110 -150 119 -173 5 -12 -2
-12 -41 -2 -102 25 -269 243 -298 386 -27 132 -27 141 12 167 19 13 35 23 35
23 1 0 2 -28 4 -63z m4329 -109 c-3 -8 -6 -5 -6 6 -1 11 2 17 5 13 3 -3 4 -12
1 -19z m2323 2 c0 -12 -56 -118 -95 -180 -74 -119 -225 -284 -243 -265 -2 2
31 50 73 107 42 57 97 145 122 196 36 72 56 100 87 122 44 31 56 36 56 20z
m-196 -39 c21 -23 15 -41 -53 -144 -93 -142 -208 -246 -351 -318 -35 -18 -35
-18 -7 -19 15 0 27 5 27 10 0 6 7 10 15 10 8 0 37 16 64 35 26 19 51 35 53 35
20 0 208 207 208 229 0 6 4 11 8 11 5 0 22 27 38 60 16 33 37 62 47 66 40 13
35 0 -43 -115 -77 -114 -102 -144 -172 -206 -38 -33 -75 -66 -84 -74 -38 -34
-187 -108 -284 -141 -73 -25 -260 -53 -260 -39 0 11 29 19 70 19 45 0 63 17
23 22 -26 3 -24 6 34 41 34 21 86 46 115 56 108 37 214 103 312 191 55 51 147
178 182 253 20 41 33 46 58 18z m-224 -169 c0 -9 -73 -76 -145 -132 -79 -62
-142 -81 -74 -21 150 129 219 177 219 153z m-2013 -195 c28 -32 56 -94 84
-187 9 -28 14 -88 13 -156 -1 -106 -2 -113 -29 -148 -29 -38 -62 -62 -73 -52
-3 3 -9 104 -13 224 -8 222 -14 288 -32 309 -10 14 -3 43 12 43 5 0 22 -15 38
-33z m-7557 -78 c157 -152 313 -257 455 -307 159 -56 253 -73 407 -73 147 0
148 0 240 37 151 61 320 193 435 341 21 27 22 27 23 6 0 -49 -54 -135 -160
-250 -192 -211 -289 -290 -425 -346 -63 -26 -77 -28 -145 -22 -203 17 -403 77
-546 166 -120 74 -324 298 -374 411 -23 52 -38 138 -24 138 5 0 57 -46 114
-101z m4330 51 c0 -5 -2 -10 -4 -10 -3 0 -8 5 -11 10 -3 6 -1 10 4 10 6 0 11
-4 11 -10z m-1566 -233 c20 -37 36 -69 36 -71 0 -2 -12 -7 -26 -10 -40 -10
-115 20 -212 84 -102 69 -135 97 -151 128 -17 33 -5 27 38 -18 56 -59 107 -51
194 30 l31 29 27 -52 c14 -29 43 -82 63 -120z m-2718 -212 c132 -110 215 -161
395 -244 58 -26 253 -76 338 -86 83 -9 70 -22 -74 -70 -167 -56 -214 -61 -292
-33 -35 13 -81 38 -101 55 -20 18 -51 39 -68 48 -77 37 -222 209 -292 346 -29
57 -52 107 -52 112 0 4 22 -14 49 -40 26 -27 70 -66 97 -88z m7971 -54 c36
-23 47 -50 39 -95 -8 -43 -56 -63 -95 -39 -38 24 -51 43 -51 77 0 36 7 48 35
64 27 16 35 15 72 -7z"/>
<path d="M15600 13630 c0 -55 62 -51 68 4 3 24 0 26 -32 26 -33 0 -36 -2 -36
-30z"/>
<path d="M15405 13573 c-32 -8 -64 -44 -71 -79 -8 -41 20 -100 55 -118 68 -35
118 -27 169 26 47 51 -3 168 -71 168 -12 0 -31 2 -42 4 -11 2 -29 2 -40 -1z
m118 -59 c20 -18 26 -32 22 -51 -10 -55 -42 -56 -75 -1 -43 71 -6 107 53 52z"/>
<path d="M15612 13550 c-6 -11 -12 -36 -12 -55 0 -28 5 -38 25 -47 21 -10 30
-8 52 8 14 11 32 29 40 40 12 18 11 24 -8 47 -26 34 -78 37 -97 7z"/>
<path d="M14496 10583 c-183 -231 -384 -854 -565 -1747 -28 -137 -49 -252 -46
-254 2 -2 46 16 98 41 440 214 729 722 754 1322 11 273 -43 513 -146 653 -17
23 -35 42 -40 42 -5 0 -30 -26 -55 -57z"/>
<path d="M15360 9002 c-148 -72 -285 -372 -379 -824 -35 -172 -64 -351 -59
-374 2 -12 22 6 62 57 189 237 319 518 382 827 22 110 44 332 33 332 -2 0 -20
-8 -39 -18z m-60 -285 c-29 -152 -81 -308 -149 -452 -60 -124 -120 -229 -121
-208 0 7 12 68 26 135 56 264 139 502 218 622 34 52 41 58 44 38 2 -12 -6 -73
-18 -135z"/>
<path d="M10813 8815 c-198 -55 -412 -262 -568 -548 l-37 -68 43 7 c359 51
606 120 765 215 120 71 223 197 224 273 0 37 -59 96 -116 115 -60 20 -248 24
-311 6z m301 -84 c26 -11 49 -27 52 -35 14 -37 -73 -139 -179 -207 -71 -46
-230 -109 -351 -139 -86 -21 -289 -60 -293 -57 -6 7 117 174 174 236 104 115
209 186 316 216 73 21 220 14 281 -14z"/>
<path d="M16740 8130 c-209 -25 -400 -114 -539 -252 -81 -79 -138 -164 -174
-257 -25 -64 -28 -86 -25 -149 3 -66 6 -77 31 -98 26 -22 37 -24 125 -24 158
0 254 31 398 126 104 69 262 232 347 360 71 107 162 272 154 280 -7 7 -166 24
-212 23 -22 -1 -69 -5 -105 -9z m206 -72 c4 -4 -16 -46 -45 -93 -148 -249
-330 -426 -519 -506 -67 -29 -91 -33 -185 -37 -70 -3 -113 0 -120 7 -17 17
-10 102 13 163 75 201 288 383 520 443 119 31 314 44 336 23z"/>
<path d="M13065 8090 c-406 -75 -692 -179 -827 -300 -95 -85 -158 -212 -158
-320 0 -176 168 -313 385 -314 100 0 163 20 260 85 139 93 280 278 400 524 62
129 135 312 135 340 0 20 -17 19 -195 -15z"/>
<path d="M15910 10970 c0 -5 10 -10 23 -10 18 0 19 2 7 10 -19 13 -30 13 -30
0z"/>
<path d="M15978 10943 c6 -2 18 -2 25 0 6 3 1 5 -13 5 -14 0 -19 -2 -12 -5z"/>
<path d="M7348 9882 c-36 -21 -81 -48 -99 -62 -108 -82 -179 -153 -179 -178 0
-25 35 -56 55 -49 8 4 -7 -26 -35 -65 -41 -59 -50 -79 -50 -115 0 -39 2 -43
25 -43 19 0 33 13 61 58 45 69 139 164 214 214 80 53 216 122 280 143 88 28
110 42 110 70 0 30 -30 48 -62 36 -46 -17 -95 -31 -111 -31 -29 0 -209 -100
-292 -163 -44 -33 -69 -48 -55 -33 40 44 120 101 200 144 71 37 75 41 75 73 0
32 -2 34 -35 36 -24 1 -57 -11 -102 -35z"/>
<path d="M7720 9790 c-153 -33 -255 -80 -371 -172 -82 -63 -205 -195 -255
-271 -38 -57 -45 -75 -42 -109 4 -53 29 -72 57 -43 10 11 31 42 46 69 65 120
175 233 310 318 122 77 192 103 354 130 92 16 111 36 68 74 -33 28 -53 29
-167 4z"/>
<path d="M7850 9693 c-158 -15 -310 -71 -432 -160 -103 -75 -278 -296 -278
-351 0 -10 -4 -22 -9 -27 -6 -6 -13 -28 -16 -51 -5 -31 -3 -45 10 -57 34 -35
64 -12 90 68 34 106 87 188 179 280 72 71 184 145 220 145 11 0 -1 -11 -30
-26 -116 -62 -228 -170 -289 -279 -40 -72 -85 -216 -85 -271 0 -48 41 -138 69
-154 31 -16 61 3 61 40 0 16 -4 31 -9 34 -5 3 -12 33 -16 66 -10 85 18 167
104 307 61 98 128 142 313 203 92 30 161 38 188 20 12 -8 12 -10 -5 -10 -175
-6 -292 -50 -400 -152 -93 -87 -162 -201 -180 -300 -11 -58 17 -137 70 -196
43 -48 44 -51 23 -54 -53 -7 -24 -79 46 -113 89 -45 212 20 275 147 17 34 31
54 31 46 0 -39 -92 -184 -131 -207 -46 -26 -48 -59 -6 -78 30 -14 63 2 106 51
40 43 48 57 92 144 17 35 34 61 37 58 7 -8 -35 -104 -65 -148 -29 -43 -25 -84
9 -97 35 -13 51 -3 83 50 29 49 30 49 38 24 12 -36 59 -35 85 3 29 40 52 133
59 240 3 50 10 92 16 92 6 0 8 -38 5 -103 -6 -112 1 -137 36 -137 27 0 42 26
52 95 5 28 9 55 10 60 1 6 2 18 3 28 1 15 4 16 22 7 28 -16 48 -6 64 32 15 38
3 131 -22 160 -13 15 -12 18 11 33 55 36 20 78 -73 89 -30 3 -59 10 -65 16 -5
5 -16 10 -24 10 -8 0 -27 9 -43 21 -45 32 -123 49 -228 50 -87 1 -98 -2 -158
-32 -79 -40 -139 -106 -186 -204 -44 -92 -54 -147 -33 -180 28 -43 66 -28 94
38 7 15 12 41 12 57 0 38 16 73 61 135 42 59 53 67 99 82 81 24 198 15 285
-22 148 -64 159 -72 149 -99 -4 -12 -13 -8 -41 20 -39 39 -71 42 -88 7 -11
-21 -12 -21 -38 12 -35 44 -79 65 -154 72 -128 12 -217 -69 -250 -229 -28
-134 -71 -180 -119 -125 -36 40 -47 73 -42 126 11 117 130 269 261 334 71 35
80 37 175 37 105 0 142 -10 211 -55 60 -40 122 -58 148 -44 25 13 29 45 10 70
-24 32 -194 109 -270 123 -21 4 -35 11 -32 17 4 6 13 5 25 -1 10 -5 30 -10 43
-10 14 0 44 -7 67 -15 39 -14 46 -14 67 0 51 34 15 81 -84 110 -79 23 -325 18
-385 -9 -21 -9 -38 -13 -38 -8 0 19 154 54 258 59 111 6 132 13 132 44 0 45
-45 56 -180 42z m64 -588 c33 -16 72 -74 63 -97 -3 -8 -8 -4 -15 13 -18 44
-68 79 -114 79 -65 0 -138 -68 -138 -130 0 -11 -5 -20 -11 -20 -7 0 -8 12 -4
33 13 59 51 117 85 130 30 11 103 7 134 -8z m156 -26 c0 -6 -4 -7 -10 -4 -5 3
-10 11 -10 16 0 6 5 7 10 4 6 -3 10 -11 10 -16z m-191 -104 c3 -17 1 -18 -13
-6 -9 7 -23 11 -31 7 -8 -3 -15 -2 -15 3 0 28 53 25 59 -4z m108 -17 c-3 -8
-6 -5 -6 6 -1 11 2 17 5 13 3 -3 4 -12 1 -19z m-100 -30 c-3 -8 -6 -5 -6 6 -1
11 2 17 5 13 3 -3 4 -12 1 -19z m-219 -90 c-13 -23 -39 -51 -58 -62 l-35 -20
46 52 c29 31 50 66 55 89 7 35 8 36 12 10 2 -16 -6 -45 -20 -69z m319 35 c-3
-10 -5 -2 -5 17 0 19 2 27 5 18 2 -10 2 -26 0 -35z m-434 -120 c-7 -2 -19 -2
-25 0 -7 3 -2 5 12 5 14 0 19 -2 13 -5z"/>
<path d="M4860 7920 c0 -5 5 -10 10 -10 6 0 10 5 10 10 0 6 -4 10 -10 10 -5 0
-10 -4 -10 -10z"/>
<path d="M4891 7884 c0 -11 3 -14 6 -6 3 7 2 16 -1 19 -3 4 -6 -2 -5 -13z"/>
<path d="M4938 7803 c5 -21 7 -23 10 -9 2 10 0 22 -6 28 -6 6 -7 0 -4 -19z"/>
<path d="M7871 7254 c-19 -24 -20 -30 -8 -48 20 -30 41 -40 70 -32 41 10 53
42 30 75 -28 37 -65 39 -92 5z"/>
<path d="M8062 7261 c-47 -30 -72 -77 -72 -134 0 -42 5 -54 33 -82 60 -60 118
-58 178 5 55 58 59 132 10 190 -35 42 -100 51 -149 21z"/>
<path d="M8670 6991 c-12 -24 -13 -41 -2 -41 8 0 32 43 32 55 0 13 -21 3 -30
-14z"/>
<path d="M7601 6824 c0 -11 3 -14 6 -6 3 7 2 16 -1 19 -3 4 -6 -2 -5 -13z"/>
<path d="M7620 6804 c0 -22 29 -79 59 -114 17 -19 31 -38 31 -42 0 -5 5 -8 11
-8 6 0 -6 23 -26 50 -20 28 -45 67 -56 88 -10 20 -18 32 -19 26z"/>
<path d="M8320 6630 c0 -5 5 -10 10 -10 6 0 10 5 10 10 0 6 -4 10 -10 10 -5 0
-10 -4 -10 -10z"/>
<path d="M6171 6310 c-39 -40 -46 -63 -25 -95 23 -35 56 -41 96 -18 60 35 61
105 1 132 -34 16 -38 15 -72 -19z m74 -40 c0 -22 -29 -18 -33 3 -3 14 1 18 15
15 10 -2 18 -10 18 -18z"/>
<path d="M11890 6485 l0 -105 61 0 c54 0 64 3 90 29 23 23 29 38 29 71 0 23
-5 50 -11 62 -14 27 -69 48 -124 48 l-45 0 0 -105z m118 33 c14 -14 16 -68 3
-68 -5 0 -23 -3 -40 -6 l-31 -6 0 46 c0 44 1 46 28 46 15 0 33 -5 40 -12z"/>
<path d="M14513 6513 c-13 -31 -21 -58 -19 -60 2 -3 24 -3 48 -1 l45 3 -26 58
-26 58 -22 -58z"/>
<path d="M10681 6219 c-31 -22 -50 -47 -71 -93 -15 -35 -34 -66 -42 -68 -7 -3
-10 -9 -6 -13 12 -12 104 86 138 148 17 31 30 57 27 57 -2 0 -23 -14 -46 -31z"/>
<path d="M16125 6500 c-10 -11 -16 -23 -13 -26 3 -3 32 -4 64 -2 l59 3 -22 23
c-28 27 -64 28 -88 2z"/>
<path d="M15570 5290 c-8 -5 -28 -12 -45 -16 -28 -7 -29 -8 -6 -12 13 -2 33 1
45 6 12 5 32 14 46 20 l25 11 -25 0 c-14 0 -32 -4 -40 -9z"/>
<path d="M15438 5243 c12 -2 30 -2 40 0 9 3 -1 5 -23 4 -22 0 -30 -2 -17 -4z"/>
<path d="M9200 13441 c0 -13 44 -22 79 -15 50 10 36 24 -24 24 -30 0 -55 -4
-55 -9z"/>
<path d="M8042 13185 l3 -207 37 -34 c36 -33 41 -34 117 -34 74 0 81 2 101 27
l20 26 30 -28 c40 -38 111 -45 158 -15 65 40 90 145 53 226 -34 75 -143 94
-210 38 -29 -24 -51 -86 -51 -144 0 -61 -13 -70 -94 -70 -56 0 -77 4 -87 17
-10 12 -15 66 -19 207 l-5 191 -28 3 -28 3 3 -206z m442 -41 c37 -14 43 -128
8 -166 -22 -25 -76 -23 -102 4 -22 24 -28 114 -10 149 11 19 68 27 104 13z"/>
<path d="M9220 13213 c0 -195 7 -237 46 -274 22 -21 37 -24 114 -27 l89 -4 20
32 c19 32 19 32 31 10 13 -25 67 -50 107 -50 16 0 46 9 67 21 35 18 40 19 55
5 15 -14 55 -16 264 -16 l247 0 38 34 37 34 3 207 3 206 -28 -3 -28 -3 -5
-191 c-6 -215 -9 -224 -71 -224 l-38 0 15 28 c43 83 -19 220 -109 237 -20 4
-66 1 -106 -7 l-70 -14 -3 80 c-3 80 -3 81 -30 84 l-28 3 0 -206 0 -206 -42 3
c-37 3 -43 6 -40 23 22 137 -25 219 -125 219 -93 -1 -143 -56 -143 -157 0 -23
-7 -53 -16 -65 -13 -19 -24 -22 -82 -22 -37 0 -72 4 -78 8 -29 19 -34 56 -34
231 l0 181 -30 0 -30 0 0 -177z m879 -52 c44 -44 51 -160 11 -181 -10 -5 -62
-10 -114 -10 l-96 0 0 95 0 94 33 10 c17 5 58 10 90 10 44 1 61 -3 76 -18z
m-419 -21 c27 -27 28 -127 2 -161 -21 -25 -71 -30 -96 -10 -40 33 -41 149 -2
176 29 21 72 19 96 -5z"/>
<path d="M10437 13383 c-4 -3 -7 -111 -7 -240 l0 -233 30 0 30 0 0 240 0 240
-23 0 c-13 0 -27 -3 -30 -7z"/>
<path d="M9990 13341 c-25 -47 36 -83 64 -38 8 12 8 22 0 35 -16 25 -51 27
-64 3z"/>
<path d="M13555 13318 c-117 -41 -203 -176 -175 -277 31 -117 148 -162 267
-104 130 64 192 226 123 322 -43 61 -136 87 -215 59z m153 -58 c29 -24 55 -86
47 -113 -17 -58 -35 -83 -71 -96 -35 -13 -37 -12 -60 15 -19 24 -23 41 -24 96
0 93 11 118 52 118 18 -1 43 -9 56 -20z"/>
<path d="M8960 13291 c-7 -15 -5 -24 8 -41 16 -19 22 -21 40 -11 24 13 29 40
10 59 -18 18 -46 14 -58 -7z"/>
<path d="M11137 13253 c-4 -3 -7 -63 -7 -133 0 -85 -4 -130 -12 -138 -7 -7
-29 -12 -50 -12 l-38 0 0 119 c0 144 -2 146 -104 146 -120 -1 -167 -41 -174
-149 -5 -82 11 -132 52 -157 42 -25 121 -25 163 0 31 19 31 19 49 0 13 -14 30
-19 69 -19 28 0 56 5 62 11 8 8 17 8 31 0 11 -6 59 -11 107 -11 78 0 88 2 110
25 14 13 25 29 25 35 0 6 14 -5 31 -25 26 -29 38 -35 71 -35 41 0 76 14 93 37
9 12 15 9 33 -11 27 -31 88 -35 133 -9 26 16 29 16 47 0 16 -15 46 -17 244
-17 l225 0 24 26 c23 24 24 33 27 176 l3 149 -28 -3 -28 -3 -3 -129 c-1 -75
-7 -135 -14 -143 -6 -8 -32 -13 -66 -13 -54 0 -55 0 -37 20 29 32 32 110 6
163 -32 67 -64 79 -191 75 -105 -3 -105 -3 -105 -28 0 -25 1 -25 108 -30 99
-5 111 -7 128 -28 43 -54 29 -154 -23 -167 -13 -3 -77 -4 -143 -3 l-120 3 -3
133 -3 132 -29 0 -30 0 0 -117 c0 -65 -4 -123 -8 -129 -9 -15 -47 -34 -66 -34
-37 0 -46 28 -46 140 0 125 -4 140 -35 140 -31 0 -35 -15 -35 -136 0 -91 -3
-107 -20 -124 -21 -21 -55 -26 -80 -10 -12 7 -16 37 -18 140 l-4 130 -29 0
-29 0 0 -109 c0 -94 -3 -112 -21 -135 -19 -24 -26 -26 -95 -26 -71 0 -75 1
-84 26 -6 14 -10 79 -10 145 0 118 0 119 -23 119 -13 0 -27 -3 -30 -7z m-177
-173 c0 -99 0 -101 -26 -110 -42 -16 -73 -11 -99 15 -21 20 -25 34 -25 85 0
82 26 110 100 110 l50 0 0 -100z"/>
<path d="M9107 13243 c-4 -3 -7 -57 -7 -119 0 -111 0 -112 -27 -130 -15 -9
-49 -19 -76 -22 -40 -4 -52 -1 -72 18 -24 22 -25 30 -25 132 l0 108 -29 0
c-34 0 -41 -23 -41 -132 0 -78 15 -122 54 -158 40 -37 144 -41 205 -8 67 36
81 70 81 205 l0 113 -28 0 c-16 0 -32 -3 -35 -7z"/>
<path d="M14691 13164 c0 -11 3 -14 6 -6 3 7 2 16 -1 19 -3 4 -6 -2 -5 -13z"/>
<path d="M7845 13136 c-46 -21 -65 -48 -72 -105 -4 -33 -10 -51 -19 -51 -8 0
-14 -10 -14 -24 0 -30 20 -36 133 -36 l87 0 0 30 0 30 -60 0 -60 0 0 45 c0 52
22 70 75 62 29 -5 34 -2 40 20 3 14 4 27 3 29 -12 12 -87 12 -113 0z"/>
<path d="M14661 13104 c0 -11 3 -14 6 -6 3 7 2 16 -1 19 -3 4 -6 -2 -5 -13z"/>
<path d="M12965 12991 c-11 -5 -38 -14 -60 -21 -56 -18 -128 -72 -168 -128
-116 -157 -96 -382 46 -538 58 -64 93 -86 183 -119 92 -33 199 -34 293 -2 54
18 78 34 132 87 36 36 76 88 90 115 21 44 24 63 24 170 0 117 -1 122 -34 189
-59 119 -169 208 -296 241 -60 16 -177 19 -210 6z m179 -36 c111 -15 244 -119
294 -230 8 -16 18 -38 24 -49 12 -22 12 -209 -1 -234 -4 -9 -16 -34 -26 -54
-10 -21 -22 -35 -26 -32 -5 3 -9 1 -9 -3 0 -13 -67 -15 -75 -3 -4 6 -3 19 1
28 14 34 12 41 -24 68 -21 15 -76 66 -123 113 -138 137 -149 145 -149 117 0
-8 7 -16 15 -20 8 -3 15 -15 15 -26 0 -11 5 -20 10 -20 6 0 10 -7 10 -16 0
-14 -3 -14 -16 -4 -15 13 -48 79 -46 92 1 3 -5 12 -13 18 -18 15 -20 51 -3 68
8 8 9 15 2 22 -10 10 -29 -24 -48 -82 -3 -10 -14 -18 -25 -18 -31 0 -36 41
-13 116 20 65 20 67 2 86 -10 11 -23 17 -29 13 -6 -3 -11 -1 -11 4 0 6 5 11
12 11 6 0 19 7 27 15 16 14 131 35 161 29 8 -1 37 -5 64 -9z m146 -555 c0 -5
-4 -10 -9 -10 -6 0 -13 5 -16 10 -3 6 1 10 9 10 9 0 16 -4 16 -10z"/>
<path d="M11104 12836 c-10 -27 1 -51 26 -54 31 -5 53 23 39 49 -12 22 -57 25
-65 5z"/>
<path d="M12190 12835 c-14 -17 -5 -51 16 -59 22 -8 54 11 54 32 0 38 -46 56
-70 27z"/>
<path d="M12280 12831 c-12 -23 -5 -47 16 -55 22 -8 54 11 54 32 0 41 -51 57
-70 23z"/>
<path d="M12025 12318 c-43 -33 -54 -72 -44 -150 14 -115 38 -135 81 -70 68
101 80 172 38 217 -29 31 -40 31 -75 3z"/>
<path d="M9865 12280 c-31 -12 -62 -52 -70 -87 -9 -43 24 -77 85 -87 42 -7 47
-5 73 24 45 50 27 127 -34 149 -18 6 -32 11 -33 10 -1 0 -10 -4 -21 -9z m63
-72 c13 -22 13 -29 3 -42 -15 -18 -44 -21 -72 -6 -25 14 -24 23 4 54 27 31 43
30 65 -6z"/>
<path d="M11852 12037 c-40 -42 -19 -175 36 -230 l22 -21 23 22 c42 42 25 216
-24 242 -26 14 -33 13 -57 -13z m55 -39 c28 -57 24 -162 -5 -156 -28 5 -55
161 -29 171 21 9 23 8 34 -15z"/>
<path d="M12705 12044 c-16 -2 -69 -9 -117 -15 -161 -20 -337 -77 -198 -64 36
4 89 10 119 16 30 5 68 9 85 8 l31 -1 -28 -12 c-38 -17 -78 -56 -101 -98 -18
-33 -18 -36 -2 -70 22 -46 56 -63 129 -63 55 1 61 3 88 35 33 40 44 70 35 103
-6 24 -42 66 -78 91 -12 9 -18 19 -14 23 13 13 370 16 478 3 246 -27 465 -91
673 -194 167 -83 254 -141 398 -266 64 -55 117 -96 117 -91 0 14 -151 163
-218 214 -120 92 -271 180 -397 231 -38 16 -79 32 -90 36 -65 27 -242 73 -360
95 -86 16 -474 29 -550 19z"/>
<path d="M11080 12033 c1 -5 28 -28 60 -52 133 -100 278 -261 376 -417 55 -89
73 -80 23 12 -83 153 -208 294 -349 395 -96 68 -110 76 -110 62z"/>
<path d="M13585 11980 c3 -5 15 -10 26 -10 11 0 17 5 14 10 -3 6 -15 10 -26
10 -11 0 -17 -4 -14 -10z"/>
<path d="M14681 11963 c1 -10 5 -31 9 -48 7 -28 8 -28 9 12 0 23 -3 45 -9 48
-5 3 -9 -2 -9 -12z"/>
<path d="M13640 11960 c0 -5 12 -10 28 -10 21 0 24 2 12 10 -20 13 -40 13 -40
0z"/>
<path d="M18295 11945 c-46 -25 -63 -44 -81 -91 -43 -112 27 -244 129 -244 72
0 146 89 146 175 0 47 -35 121 -70 147 -35 27 -88 32 -124 13z m127 -62 c20
-24 29 -76 22 -124 -7 -40 -67 -114 -85 -104 -16 10 -11 161 7 205 18 44 33
50 56 23z"/>
<path d="M13734 11920 c22 -11 46 -20 53 -20 7 0 13 -4 13 -10 0 -5 9 -10 19
-10 11 0 23 -4 26 -10 3 -5 23 -17 43 -27 20 -9 61 -32 90 -50 29 -18 57 -33
62 -33 6 0 10 -4 10 -10 0 -5 5 -10 12 -10 6 0 3 9 -7 20 -10 11 -24 20 -32
20 -7 0 -13 4 -13 9 0 5 -8 11 -17 15 -10 3 -36 17 -58 30 -22 14 -69 39 -105
56 -36 18 -73 36 -82 41 -10 5 -26 9 -35 9 -10 -1 -1 -9 21 -20z"/>
<path d="M9643 11818 c-60 -37 -73 -60 -73 -128 0 -44 4 -52 33 -73 76 -57
108 -56 174 6 63 59 66 128 9 191 -42 45 -73 46 -143 4z"/>
<path d="M14712 11820 c0 -14 2 -19 5 -12 2 6 2 18 0 25 -3 6 -5 1 -5 -13z"/>
<path d="M14731 11744 c0 -11 3 -14 6 -6 3 7 2 16 -1 19 -3 4 -6 -2 -5 -13z"/>
<path d="M9308 11558 c-14 -18 -42 -65 -63 -104 -45 -83 -43 -109 8 -101 17 3
67 11 110 18 l77 13 -6 36 c-9 56 -67 170 -85 170 -9 0 -28 -15 -41 -32z"/>
<path d="M11581 11464 c0 -11 3 -14 6 -6 3 7 2 16 -1 19 -3 4 -6 -2 -5 -13z"/>
<path d="M10387 11116 c-72 -26 -127 -83 -165 -169 -23 -53 -11 -182 19 -207
3 -3 22 -31 43 -63 25 -41 47 -63 73 -73 53 -22 60 -10 44 80 -14 87 -7 137
26 187 39 59 80 71 194 56 45 -7 58 -5 68 7 34 41 -42 129 -144 170 -73 29
-103 31 -158 12z"/>
<path d="M18720 10943 c-223 -16 -344 -42 -487 -105 -357 -156 -611 -498 -672
-906 -17 -115 -14 -170 21 -352 63 -329 295 -637 598 -794 212 -110 494 -161
670 -121 36 9 90 20 121 25 52 9 138 41 235 86 239 111 467 364 563 625 52
141 61 199 61 399 0 199 -9 258 -60 398 -97 261 -300 492 -550 624 -149 79
-365 131 -500 121z m135 -128 c76 -9 99 -23 157 -96 60 -76 79 -136 85 -274 4
-91 1 -125 -16 -195 -12 -47 -25 -95 -28 -107 -8 -33 9 -29 75 15 120 80 228
113 309 93 130 -32 190 -94 255 -261 12 -32 31 -207 30 -285 0 -33 -12 -103
-27 -155 -14 -52 -29 -107 -33 -122 -10 -40 -118 -159 -187 -206 -119 -81
-179 -91 -255 -42 -47 30 -190 171 -190 187 0 5 7 19 17 32 15 23 20 24 102
18 172 -12 304 26 354 102 51 78 70 142 75 246 4 88 2 106 -17 146 -32 68 -80
115 -130 129 -42 11 -175 5 -196 -9 -5 -4 -30 -13 -55 -21 -46 -13 -125 -46
-194 -80 -40 -20 -61 -18 -52 5 2 7 10 76 16 153 13 157 6 216 -37 312 -55
122 -112 160 -237 160 -116 0 -185 -40 -234 -135 -25 -47 -31 -69 -26 -93 8
-39 5 -39 -42 -7 -20 14 -42 25 -49 25 -7 0 -26 17 -41 38 -28 35 -29 42 -29
139 0 97 1 103 30 144 21 30 49 53 92 74 89 45 297 88 383 79 19 -1 62 -6 95
-9z m-688 -492 c107 -57 249 -161 280 -205 38 -56 44 -67 116 -213 86 -175
107 -260 107 -437 l0 -111 53 -66 c77 -95 136 -195 190 -321 52 -123 55 -133
45 -162 -10 -28 -65 -78 -85 -78 -15 0 -43 45 -43 69 0 11 -4 22 -9 25 -4 3
-16 27 -26 53 -30 79 -131 233 -153 233 -5 0 -24 -21 -40 -47 -72 -112 -197
-173 -353 -173 -125 0 -158 15 -266 118 -101 97 -133 150 -163 268 -14 59 -16
81 -7 109 41 135 248 190 494 132 168 -39 170 -39 193 -15 34 37 25 144 -22
248 -37 83 -82 144 -175 240 -82 85 -100 98 -165 123 -93 35 -130 34 -194 -3
-89 -50 -135 -130 -147 -252 -4 -45 -22 -68 -53 -68 -31 0 -44 27 -52 108 -15
135 33 295 110 371 71 70 114 88 220 90 70 1 82 -2 145 -36z"/>
<path d="M18125 9391 c-53 -10 -98 -34 -119 -65 -21 -32 -20 -101 2 -146 18
-36 100 -105 169 -141 47 -24 30 -26 189 22 44 13 132 105 140 145 12 66 -28
129 -106 170 -38 20 -201 29 -275 15z"/>
<path d="M4759 10515 c-5 -8 11 -286 21 -385 1 -8 6 0 10 18 4 18 1 98 -6 180
-19 203 -18 198 -25 187z"/>
<path d="M10813 10370 c-18 -11 -33 -27 -33 -36 0 -19 19 -56 34 -67 13 -9 76
1 94 15 22 18 14 65 -14 87 -33 26 -41 26 -81 1z"/>
<path d="M5336 9690 c-73 -22 -146 -105 -146 -166 0 -41 41 -91 83 -102 91
-24 187 58 187 159 0 35 -6 48 -39 80 -41 42 -41 42 -85 29z"/>
<path d="M17453 8687 c2 -10 41 -37 53 -37 15 0 -1 21 -26 33 -19 10 -29 11
-27 4z"/>
<path d="M17980 8660 c36 -12 62 -12 55 0 -3 6 -23 10 -43 9 -33 -1 -34 -2
-12 -9z"/>
<path d="M17621 8621 c-10 -6 -1 -11 28 -16 45 -7 65 0 41 15 -19 12 -51 12
-69 1z"/>
<path d="M18106 8215 c-32 -24 -25 -74 14 -107 39 -32 56 -34 88 -12 42 29 23
96 -33 120 -42 17 -45 17 -69 -1z"/>
<path d="M18287 8162 c-22 -24 -21 -45 2 -66 42 -38 94 22 56 64 -22 25 -37
25 -58 2z"/>
<path d="M4030 8048 c-8 -24 -17 -47 -20 -53 -19 -30 -49 -192 -31 -165 6 8
11 25 11 37 0 19 42 153 65 206 4 9 3 17 -2 17 -6 0 -16 -19 -23 -42z"/>
<path d="M5693 8035 c-29 -20 -39 -40 -47 -91 -7 -38 -4 -44 27 -78 28 -29 42
-36 71 -36 87 0 128 108 69 178 -34 40 -86 52 -120 27z"/>
<path d="M5530 7740 c0 -5 3 -10 8 -10 13 0 72 -107 87 -157 19 -64 18 -205
-1 -273 -41 -145 -179 -328 -317 -422 -77 -52 -217 -102 -331 -118 -341 -48
-753 137 -898 404 -21 38 -38 75 -38 82 0 8 -4 14 -10 14 -23 0 -3 -61 37
-116 13 -17 23 -36 23 -43 0 -17 67 -120 104 -159 67 -72 231 -154 381 -192
189 -48 461 -40 592 17 18 7 52 20 75 29 188 66 368 288 416 514 15 68 22 86
38 89 54 10 60 55 10 76 -29 12 -37 24 -61 92 -34 96 -115 218 -115 173z"/>
<path d="M18968 7023 c7 -3 16 -2 19 1 4 3 -2 6 -13 5 -11 0 -14 -3 -6 -6z"/>
<path d="M18997 7016 c-4 -10 -1 -13 8 -9 8 3 12 9 9 14 -7 12 -11 11 -17 -5z"/>
<path d="M18955 6999 c-4 -6 -5 -12 -2 -15 2 -3 7 2 10 11 7 17 1 20 -8 4z"/>
<path d="M11130 5670 c-7 -4 24 -32 82 -74 51 -36 115 -86 142 -111 27 -25 53
-45 58 -45 30 0 -31 102 -88 146 -81 62 -168 100 -194 84z"/>
<path d="M11270 5102 c-35 -24 -47 -41 -60 -87 -15 -54 6 -105 62 -145 65 -48
141 -36 187 29 36 49 26 87 -38 154 -62 66 -105 80 -151 49z m96 -53 c19 -11
39 -29 44 -39 13 -24 13 -57 0 -65 -18 -11 -84 17 -112 47 -26 28 -27 31 -12
54 20 29 37 30 80 3z"/>
<path d="M14375 5024 c53 -41 227 -109 365 -144 19 -5 64 -16 100 -25 36 -9
83 -19 105 -21 22 -3 49 -9 60 -13 27 -11 322 -52 412 -56 54 -3 74 -1 83 10
10 12 41 15 134 16 66 1 132 5 146 9 14 4 -94 8 -244 9 -149 1 -295 5 -325 11
-31 5 -105 17 -166 25 -60 9 -126 20 -145 25 -19 4 -60 14 -90 20 -101 23
-382 121 -404 141 -6 5 -19 9 -30 9 -21 -1 -21 -1 -1 -16z"/>
<path d="M10350 4999 c0 -6 9 -23 19 -38 10 -14 25 -40 33 -57 14 -33 87 -122
153 -186 56 -54 252 -175 359 -221 80 -34 194 -70 266 -83 40 -8 102 20 133
59 58 71 33 146 -74 229 -75 59 -116 70 -244 70 -55 0 -114 4 -131 9 -16 5
-71 13 -121 18 -85 8 -97 12 -165 54 -40 25 -91 64 -113 86 -21 23 -44 41 -51
41 -6 0 -17 7 -24 15 -14 17 -40 20 -40 4z m452 -271 c29 -9 57 -9 111 0 80
12 211 1 256 -22 14 -8 50 -39 79 -69 42 -45 52 -62 51 -89 0 -31 -1 -32 -11
-10 -9 18 -19 22 -62 22 -59 0 -269 70 -418 139 -89 40 -91 55 -6 29z"/>
<path d="M15983 4833 c-51 -2 -93 -7 -93 -11 0 -4 62 -7 138 -8 150 -1 197
-14 241 -70 65 -82 130 -384 131 -601 0 -246 -71 -441 -239 -654 -94 -118
-162 -162 -145 -94 4 16 -52 -34 -166 -146 -95 -94 -170 -173 -167 -176 10 -9
72 16 143 59 231 139 456 400 543 633 59 155 81 341 62 516 -21 191 -79 406
-130 476 -52 72 -106 85 -318 76z"/>
<path d="M15843 4703 c9 -2 25 -2 35 0 9 3 1 5 -18 5 -19 0 -27 -2 -17 -5z"/>
<path d="M16000 4662 c33 -16 67 -43 86 -68 32 -43 90 -205 101 -282 7 -50 23
-66 23 -23 0 33 -18 108 -52 214 -33 105 -118 188 -192 187 -14 -1 -2 -10 34
-28z"/>
<path d="M14660 4530 c-193 -41 -360 -239 -360 -429 0 -90 44 -204 106 -271
48 -52 120 -100 149 -100 7 0 18 -7 25 -15 10 -12 37 -15 119 -15 104 0 107 0
188 41 107 54 182 128 231 229 34 71 36 80 36 175 0 90 -3 106 -30 165 -64
136 -187 218 -338 225 -44 2 -101 0 -126 -5z m244 -55 c25 -11 46 -31 66 -63
16 -26 37 -58 47 -72 10 -14 26 -41 37 -60 10 -19 21 -37 25 -40 14 -12 31
-52 37 -89 13 -83 -46 -235 -113 -290 -45 -37 -53 -38 -53 -8 0 13 -10 34 -21
46 -19 20 -20 27 -11 59 19 64 4 186 -35 281 -26 64 -34 94 -30 123 3 20 2 52
-2 70 -8 35 -5 58 9 58 4 0 24 -7 44 -15z"/>
<path d="M11439 4471 c-34 -35 -36 -58 -9 -111 54 -106 181 -128 234 -40 38
66 14 123 -69 161 -62 29 -120 25 -156 -10z m158 -31 c23 -15 44 -65 36 -86
-7 -20 -27 -17 -81 11 -26 14 -54 25 -63 25 -16 0 -29 19 -29 41 0 6 14 16 32
23 32 14 67 9 105 -14z"/>
<path d="M13814 4323 c-3 -10 -10 -29 -15 -43 -54 -150 -60 -451 -15 -660 54
-246 178 -458 354 -602 186 -154 384 -232 636 -253 57 -5 87 -4 83 2 -4 6 -43
13 -88 17 -234 19 -480 127 -626 273 -55 55 -103 136 -90 149 3 4 42 -21 86
-54 67 -51 222 -135 296 -162 106 -38 151 -48 140 -30 -3 6 -15 10 -25 10 -11
0 -36 7 -57 16 -21 9 -48 21 -60 25 -110 42 -249 133 -334 219 -241 244 -348
578 -294 915 22 133 29 195 21 195 -4 0 -9 -8 -12 -17z"/>
<path d="M10058 4286 c-40 -39 -174 -86 -248 -86 -50 0 -70 -13 -70 -44 0 -20
91 -86 175 -128 38 -19 141 -33 149 -20 6 11 21 118 31 225 4 55 3 67 -9 67
-8 0 -21 -6 -28 -14z m-54 -163 c-3 -27 -8 -50 -10 -52 -2 -2 -28 8 -58 22
-30 15 -59 27 -64 27 -5 0 -15 7 -22 15 -11 13 -7 15 26 15 22 0 46 5 54 10 8
5 30 10 48 10 l33 0 -7 -47z"/>
<path d="M16210 4133 c0 -56 4 -93 10 -93 13 0 13 150 0 170 -7 10 -10 -14
-10 -77z"/>
<path d="M16211 3984 c0 -11 3 -14 6 -6 3 7 2 16 -1 19 -3 4 -6 -2 -5 -13z"/>
<path d="M16190 3905 c0 -8 5 -15 10 -15 6 0 10 7 10 15 0 8 -4 15 -10 15 -5
0 -10 -7 -10 -15z"/>
<path d="M16171 3804 c0 -11 3 -14 6 -6 3 7 2 16 -1 19 -3 4 -6 -2 -5 -13z"/>
<path d="M14610 2940 c8 -5 33 -9 55 -9 35 1 37 2 15 9 -14 4 -38 8 -55 9 -23
0 -26 -2 -15 -9z"/>
<path d="M15068 2933 c7 -3 16 -2 19 1 4 3 -2 6 -13 5 -11 0 -14 -3 -6 -6z"/>
<path d="M14818 2913 c28 -2 76 -2 105 0 28 2 5 3 -53 3 -58 0 -81 -1 -52 -3z"/>
</g>
</svg>
