<?xml version="1.0" encoding="utf-8"?>
<!-- Generator: Adobe Illustrator 24.2.1, SVG Export Plug-In . SVG Version: 6.00 Build 0)  -->
<svg version="1.1" id="Layer_1" xmlns="http://www.w3.org/2000/svg" xmlns:xlink="http://www.w3.org/1999/xlink" x="0px" y="0px"
	 viewBox="0 0 960 560" style="enable-background:new 0 0 960 560;" xml:space="preserve">
<style type="text/css">
	.st0{fill:#232324;}
	.st1{fill:#4B78BA;}
	.st2{fill:#E8521D;}
	.st3{fill:#B34418;}
	.st4{fill:#F18E5C;}
	.st5{fill:#FACDB4;}
	.st6{fill:none;}
	.st7{fill:#F8AD1D;}
	.st8{fill:#F4A27A;}
	.st9{fill:#EC9C80;}
	.st10{fill:#576F95;}
</style>
<g>
	<path class="st0" d="M540.98,279.99l-61.72,61.8l-58.17-62.63C439.79,269.89,488.36,251.7,540.98,279.99z"/>
	<path class="st1" d="M539.33,85.61l-1.31,70.54c-8-1.21-15.92-2.13-23.73-2.78l1.72-92.89L539.33,85.61z"/>
	<path class="st2" d="M594.55,145.08l-0.45,24.01c-4.22-1.35-8.45-2.59-12.65-3.75c-11-3.07-21.92-5.51-32.71-7.43l1.13-60.95
		L594.55,145.08z"/>
	<path class="st1" d="M629.31,182.5c-8.16-3.65-16.35-6.91-24.52-9.81l0.3-16.28L629.31,182.5z"/>
	<path class="st3" d="M553.51,421.77c-3.42,6.65-7.84,13.5-13.41,20.5l-27.6-29.71c5.3-8.95,7.85-17.62,8.66-25.64
		c0.05-0.59,0.1-1.17,0.14-1.74c2.14,1.1,4.57,1.74,7.14,1.79c8.97,0.16,16.36-6.95,16.52-15.85c0.17-8.92-6.96-16.26-15.93-16.42
		c-4.49-0.08-8.59,1.65-11.57,4.53c-2.27-6.32-5.09-11.23-7.04-14.23l26.23-26.26C548.59,331.35,579.57,371.11,553.51,421.77z"/>
	<path class="st2" d="M505.49,49.15l-1.92,103.42c-15.82-0.94-31.1-0.9-45.61-0.21l1.87-100.94l24.75-24.79L505.49,49.15z"/>
	<path class="st1" d="M448.88,62.38l-1.68,90.61c-8.86,0.64-17.39,1.52-25.52,2.56l1.25-67.18L448.88,62.38z"/>
	<path class="st4" d="M422.77,265.61c-5.72,2.75-9.08,4.88-9.48,5.14l-66.24-71.35l-0.69-0.73l5.49-17.91l0.02-0.02l40.21,16.71
		C392.09,197.46,416.64,252.34,422.77,265.61z"/>
	<path class="st5" d="M347.44,182.07l-4.31,13.11l-8.39-9.03C337.92,185.06,342.21,183.63,347.44,182.07z"/>
	<path class="st4" d="M617.8,205.98l-68.62,65.78c-4.93-3.08-9.85-5.73-14.72-8.01l31.04-60.95l51.33-14.62l0.02,0l0,0.02
		L617.8,205.98z"/>
	<path class="st5" d="M630.35,193.94l-8.5,8.15l-0.76-12.17c2.29,0.94,4.58,1.93,6.87,2.95
		C628.76,193.22,629.55,193.58,630.35,193.94z"/>
	<path class="st6" d="M395.6,426.85l-1.77,1.77l11.02,10.9l1.77-1.77L395.6,426.85z M390.29,432.17l11.02,10.9l1.79-1.77
		l-11.02-10.9L390.29,432.17z M353.34,304l8.82,12.73l2.07-1.42l-8.82-12.73L353.34,304z M349.2,306.84l8.82,12.73l2.07-1.42
		l-8.82-12.73L349.2,306.84z M341.15,374.09l15.54,0.28l0.05-2.5l-15.54-0.28L341.15,374.09z M341.24,369.08l15.54,0.28l0.05-2.5
		l-15.54-0.28L341.24,369.08z M289.96,373.18l15.54,0.28l0.05-2.5l-15.54-0.28L289.96,373.18z M290.05,368.18l15.54,0.28l0.05-2.5
		l-15.54-0.28L290.05,368.18z M291.53,288.41l15.54,0.28l0.05-2.5l-15.54-0.28L291.53,288.41z M291.63,283.43l15.54,0.28l0.05-2.5
		l-15.54-0.28L291.63,283.43z M239.12,372.28l15.52,0.27l0.05-2.5l-15.52-0.27L239.12,372.28z M239.21,367.28l15.52,0.27l0.05-2.5
		l-15.52-0.27L239.21,367.28z M186.77,371.35l15.54,0.28l0.05-2.5l-15.54-0.28L186.77,371.35z M186.87,366.35l15.54,0.28l0.05-2.5
		l-15.54-0.28L186.87,366.35z"/>
	<path class="st0" d="M521.29,385.17c-0.03,0.57-0.08,1.15-0.14,1.74c-0.81,8.02-3.36,16.69-8.66,25.64l-33.5-36.07l16.83-16.87
		l14.6-14.63c1.94,3.01,4.76,7.92,7.04,14.23c-2.98,2.88-4.87,6.87-4.95,11.31C512.39,376.87,515.98,382.43,521.29,385.17z"/>
	<path class="st7" d="M642.21,230.78l-94.61,85.09c-1.5-1.52-2.88-2.84-4.11-3.97l90.17-90.34L642.21,230.78z"/>
	<path class="st7" d="M680.8,272.33l-118.45,62.89c-2.4-4.1-4.95-7.78-7.47-11l93.97-86.29L680.8,272.33z"/>
	<path class="st7" d="M723.91,318.76l-152.93,36.01c-1.26-4.21-2.82-8.17-4.56-11.85l121.02-63.44L723.91,318.76z"/>
	<path class="st7" d="M779.71,378.87l-0.59,0.6l-204.48-2.18c-0.1-3.73-0.44-7.35-1-10.82l159.05-38.22L779.71,378.87z"/>
	<path class="st7" d="M767.63,390.98l-46.4,46.47L572.8,397.99c0.91-4.52,1.46-8.85,1.71-13.05L767.63,390.98z"/>
	<path class="st7" d="M711.8,446.9l-36.16,36.21L567.6,415.58c1.26-3.3,2.35-6.54,3.25-9.7L711.8,446.9z"/>
	<path class="st7" d="M667.69,491.07l-25.83,25.85l-82.6-83.44c1.09-2.05,3.88-7.69,4.81-9.7L667.69,491.07z"/>
	<path class="st6" d="M544.96,371.11c-0.17,8.9-7.56,16.01-16.52,15.85c-2.58-0.05-5-0.68-7.14-1.79c-5.31-2.74-8.9-8.3-8.78-14.63
		c0.08-4.45,1.97-8.43,4.95-11.31c2.98-2.88,7.08-4.61,11.57-4.53C538,354.85,545.13,362.19,544.96,371.11z"/>
	<path class="st6" d="M418.26,327.26c0,0-4.23,18.11-22.25,16.42c-7.16-8.53-11.2-13.26-11.2-13.26l20.44-16.58L418.26,327.26z"/>
	<path class="st6" d="M455.41,365.67l-17.8,17.85c-0.93-1.9-2.76-5.65-6.22-12.84c-1.76-16.05,14.73-14.59,14.73-14.59
		L455.41,365.67z"/>
	<path class="st2" d="M411.98,99.33l-1.07,57.73c-9.41,1.41-18.23,3.04-26.3,4.74c-9.48,1.99-18,4.07-25.33,6.05l0.36-19.56
		L411.98,99.33z"/>
	<path class="st1" d="M348.7,158.55l-0.23,12.36c-4.62,1.39-8.55,2.66-11.66,3.71c-5.23,1.77-8.2,2.93-8.55,3.07L348.7,158.55z"/>
	<path class="st7" d="M636.07,523.63l-6.41,6.43l-4.43,4.17l-0.04-0.06l-76.48-84.39c1.72-2.45,4.23-6.23,5.72-8.63L636.07,523.63z"
		/>
	<path class="st8" d="M461.33,253.6c-14.5,2.29-26.58,6.63-35,10.37l-30.76-66l24.28-31.32l31.23,18.66L461.33,253.6z"/>
	<path class="st4" d="M507.88,191.1l-10.45,61.87c-11.85-1.52-23.01-1.19-33.1,0.21c-2.03-13.04-9.4-66.67-9.4-66.67l28.25-22.22
		L507.88,191.1z"/>
	<path class="st8" d="M563.51,199.81l-31.4,62.89c-10.74-4.78-21.22-7.7-31.28-9.27l9.79-61.61l36.49-20.64L563.51,199.81z"/>
	<polyline class="st6" points="351.85,180.77 351.85,180.75 351.88,180.75 	"/>
	<path class="st5" d="M414.37,167.19l-21.31,26.88l-35.77-14.84c4.08-1.12,8.56-2.27,13.37-3.43
		C383.41,172.72,397.29,169.6,414.37,167.19z"/>
	<path class="st5" d="M478.42,162.73l-24.12,20.71l-30.07-17.8C440.39,164.11,458.85,162.75,478.42,162.73z"/>
	<path class="st5" d="M544.41,168.2l-34.18,19.76l-22.51-25.13C506.48,163.25,524.28,164.73,544.41,168.2z"/>
	<path class="st5" d="M612.47,186.47l-45.39,12.03l-16.5-29.18c15.21,2.75,29.41,6.13,44.95,11.16
		C601.16,182.31,606.81,184.3,612.47,186.47z"/>
	<path class="st1" d="M288.67,435.86c1.42,0.71,2.08,1.71,2.82,2.56c3.48,3.98,7.45,7.42,11.67,10.57c4.09,3.05,8.46,5.68,13.15,7.7
		c3.23,1.4,6.6,2.48,10.04,3.3c6.36,1.53,12.77,1.67,19.22,0.7c4.86-0.73,9.46-2.29,13.89-4.4c4.47-2.12,8.64-4.7,12.42-7.91
		c3.15-2.68,6.14-5.51,8.86-8.64c4.76-5.48,8.68-11.49,12.04-17.89c0.51-0.98,0.94-2.01,1.4-3.02c0.11-0.25,0.21-0.52,0.07-0.89
		c-0.83,0.18-1.2,0.94-1.53,1.52c-1.52,2.7-3.77,4.84-5.58,7.32c-2.84,3.88-6.25,7.29-9.56,10.76c-2.81,2.94-5.74,5.79-9.12,8.12
		c-0.93,0.64-1.99,1.01-2.97,1.54c-2.59,1.43-5.06,3.06-7.73,4.36c-4,1.94-8.13,3.49-12.56,4.07c-4.3,0.56-8.61,0.9-12.93,0.35
		c-4.29-0.55-8.42-1.69-12.42-3.37c-3.87-1.63-7.64-3.44-11.07-5.88c-3.64-2.59-7.15-5.32-10.35-8.47
		c-3.52-3.46-6.73-7.15-9.72-11.04c-0.45-0.59-0.77-1.18-0.83-1.96c-0.66-9.15-1.34-18.3-2.01-27.45c-0.02-0.32,0.02-0.64,0.04-1.3
		c1,2.13,1.97,3.94,2.72,5.82c1.64,4.13,4.08,7.78,6.59,11.4c1.97,2.84,4.04,5.6,6.48,8.08c4.82,4.9,10.19,9.02,16.49,11.86
		c3.76,1.7,7.73,2.52,11.8,3.05c2.94,0.38,5.83,0.19,8.73-0.13c3.14-0.34,6.11-1.37,9.06-2.45c4.48-1.64,8.26-4.37,11.91-7.37
		c3.93-3.23,7.14-7.07,9.97-11.22c4-5.88,7.05-12.25,9.25-19.03c1.15-3.55,2.27-7.1,3.02-10.75c0.85-4.15,1.29-8.36,1.7-12.58
		c0.71-7.49,0.72-14.96-0.22-22.41c-0.53-4.14-1.23-8.27-2.23-12.35c-0.82-3.36-1.78-6.69-2.76-10c-0.99-3.36-2.51-6.55-3.98-9.74
		c-1.43-3.1-3.15-6.04-4.88-8.97c-1.9-3.21-4.21-6.16-6.74-8.94c-1.65-1.81-3.18-3.73-5.1-5.28c-3.04-2.44-5.96-5.06-9.49-6.84
		c-5.17-2.62-10.51-4.61-16.38-5.05c-2.43-0.18-4.82-0.26-7.22,0.06c-2.84,0.38-5.57,1.15-8.28,2.1c-4.34,1.52-8.14,3.95-11.8,6.63
		c-2.35,1.71-4.29,3.89-6.32,5.97c-2.2,2.25-3.92,4.86-5.7,7.43c-3.26,4.7-5.62,9.86-7.69,15.16c-2.07,5.31-3.4,10.82-4.47,16.41
		c-0.6,3.13-1.02,6.26-1.32,9.43c-0.81,8.59-0.69,17.18-0.04,25.77c2.85,38.04,5.66,76.09,8.49,114.13c0.04,0.5,0.08,1,0.1,1.51
		c0.01,0.27,0.06,0.59-0.26,0.72c-0.28,0.12-0.54-0.01-0.76-0.21c-0.98-0.92-1.96-1.83-2.92-2.76c-4.61-4.46-9.21-8.94-13.81-13.41
		c-0.94-0.91-1.25-2.02-1.34-3.31c-1.32-18.13-2.68-36.26-4.02-54.39c-1.55-20.92-3.17-41.83-4.62-62.76
		c-0.38-5.46-0.77-10.94-0.42-16.42c0.28-4.39,0.66-8.78,1.38-13.14c0.35-2.15,0.76-4.29,1.32-6.38c0.69-2.58,1.67-5.08,2.77-7.52
		c0.85-1.88,1.62-3.8,2.61-5.6c1.21-2.2,2.55-4.34,3.94-6.43c4.08-6.14,9.03-11.49,14.76-16.15c4.4-3.58,9.11-6.65,14.19-9.17
		c3.76-1.87,7.74-3.17,11.74-4.46c6.38-2.05,12.93-2.77,19.56-2.91c2.95-0.06,5.91,0.31,8.86,0.69c3.07,0.39,6.03,1.22,9.04,1.81
		c2.43,0.48,4.64,1.6,6.95,2.42c1.96,0.69,3.76,1.72,5.57,2.72c0.83,0.46,1.68,0.89,2.6,1.17c1.47,0.45,2.64,1.45,3.89,2.29
		c1.99,1.33,3.91,2.75,5.96,4.02c1.79,1.11,3.25,2.73,4.88,4.09c2.44,2.05,4.69,4.31,6.91,6.58c2.07,2.11,3.7,4.6,5.21,7.15
		c0.5,0.85,1.12,1.61,1.95,2.39c0.13-1-0.37-1.62-0.71-2.29c-0.75-1.5-1.39-3.05-2.22-4.5c-2.3-4.01-5.19-7.6-8.15-11.16
		c-2.7-3.25-5.83-6.06-9.17-8.55c-4.15-3.1-8.52-5.93-13.41-7.89c-3.69-1.48-7.37-2.95-11.23-3.91c-3.1-0.77-6.23-1.28-9.43-1.55
		c-4.1-0.35-8.18-0.5-12.27-0.25c-4.66,0.28-9.22,1.16-13.79,2.17c-4.03,0.89-7.87,2.27-11.61,3.89c-3.22,1.39-6.29,3.11-9.33,4.9
		c-6.96,4.1-13,9.27-18.37,15.24c-4.28,4.75-7.77,10.04-10.85,15.63c-2.79,5.07-4.66,10.47-6.29,15.96
		c-1.38,4.65-2.28,9.4-2.52,14.28c-0.14,3.01-0.34,6.01-0.34,9.03c0,1.86,0.36,3.67,0.5,5.51c2.19,29.29,4.38,58.57,6.58,87.86
		c0.74,9.93,1.48,19.86,2.21,29.79c0.05,0.65,0.19,1.31-0.01,2.07c-0.83-0.03-1.19-0.67-1.63-1.1c-3.05-2.94-5.96-6.02-9.13-8.83
		c-2.72-2.41-4.95-5.3-7.85-7.5c-1.16-0.88-1.51-2.07-1.61-3.49c-1.13-15.68-2.31-31.35-3.47-47.03
		c-1.7-22.93-3.39-45.86-5.14-68.78c-0.12-1.59,0.24-2.71,1.39-3.85c1.74-1.73,3.18-3.75,4.88-5.52c3.9-4.08,7.53-8.39,11.26-12.61
		c3.29-3.72,6.63-7.4,9.93-11.11c2.55-2.88,4.95-5.89,7.63-8.66c3.22-3.33,6.24-6.85,9.29-10.33c3.54-4.02,7.12-8.01,10.66-12.02
		c2.29-2.59,4.48-5.29,6.9-7.76c2.34-2.4,4.34-5.09,6.63-7.53c0.96-1.02,1.95-1.99,2.96-2.95c0.56-0.54,1.23-0.86,2.01-1.11
		c6.95-2.24,14.09-3.25,21.36-3.45c2.07-0.06,4.15,0.1,6.22,0.2c2.29,0.11,4.56,0.42,6.84,0.73c3,0.41,5.93,1.17,8.89,1.78
		c0.76,0.15,1.24,0.73,1.74,1.25c3.07,3.16,6.12,6.34,9.19,9.5c3.81,3.92,7.71,7.76,11.41,11.79c3.13,3.41,6.48,6.61,9.63,10
		c4.67,5.02,9.59,9.8,14.34,14.76c2.51,2.62,5.14,5.13,7.57,7.8c3.53,3.88,7.4,7.42,10.85,11.36c0.96,1.09,2.09,2.01,3.1,3.06
		c1.27,1.33,2.48,2.73,3.75,4.06c0.4,0.42,0.42,0.87,0.46,1.38c1.07,14.56,2.15,29.12,3.23,43.68c1.54,20.81,3.08,41.62,4.65,62.42
		c0.1,1.29-0.05,2.32-0.99,3.36c-2.05,2.29-4.1,4.58-6.27,6.76c-1.45,1.46-2.69,3.13-4.14,4.59c-3.43,3.45-6.62,7.1-9.92,10.66
		c-4.29,4.62-8.57,9.25-12.82,13.92c-4.24,4.66-8.61,9.21-12.83,13.9c-2.98,3.32-6.2,6.42-9.04,9.87c-1.45,1.76-3.17,3.31-4.76,4.96
		c-1.21,1.25-2.84,1.78-4.36,2.46c-3.34,1.49-6.85,2.48-10.43,3.21c-4.02,0.82-8.06,1.52-12.17,1.66c-5.68,0.2-11.35,0-16.94-1.01
		c-5.52-0.99-10.81-2.79-15.97-5.04c-4.98-2.17-9.35-5.22-13.55-8.57c-1.67-1.33-2.87-3.13-4.4-4.61c-0.35-0.34-0.4-0.79-0.43-1.24
		c-0.34-4.69-0.69-9.37-1.02-14.06c-0.01-0.16,0.03-0.33,0.06-0.62c1.04,0.21,1.77,0.92,2.47,1.54c4.57,4.02,9.76,7.07,15.18,9.79
		c5.39,2.71,11.15,4.33,17,5.58c2.88,0.62,5.84,0.96,8.83,1c2.69,0.04,5.37,0.17,8.07-0.04c4.55-0.37,8.97-1.27,13.37-2.47
		c3.8-1.04,7.43-2.49,10.98-4.13c5.3-2.44,10.16-5.58,14.8-9.15c4.19-3.23,8.04-6.79,11.48-10.74c3.3-3.78,6.44-7.71,9.02-12.07
		c1.76-2.98,3.53-5.94,5.17-8.99c0.87-1.62,1.53-3.35,2.25-5.04c0.54-1.27,1.04-2.57,1.62-4.01c-2.14,2.69-3.37,5.75-5.22,8.41
		c-1.69,2.43-3.29,4.93-5.07,7.28c-1.59,2.09-3.4,4-5.07,6.03c-3.14,3.79-6.62,7.26-10.35,10.45c-3.64,3.12-7.36,6.21-11.55,8.59
		c-4.37,2.48-8.81,4.82-13.54,6.63c-4.22,1.61-8.54,2.66-12.99,3.35c-2.28,0.36-4.55,0.74-6.85,0.8c-4.83,0.11-9.66,0.08-14.41-0.86
		c-3.84-0.76-7.58-1.91-11.23-3.35c-4.29-1.69-8.38-3.73-12.17-6.33c-3.55-2.43-7.1-4.88-10-8.1c-0.04-0.04-0.07-0.1-0.11-0.12
		c-2.27-1.25-2.57-3.35-2.69-5.69c-0.29-5.42-0.77-10.82-1.17-16.23C288.79,437.43,288.75,436.82,288.67,435.86z"/>
	<path class="st9" d="M379.22,356.99c-0.01,3.95,0.1,8.07-0.15,12.2c-0.2,3.35-0.53,6.67-1.02,9.96c-0.44,2.95-1.01,5.92-1.88,8.8
		c-0.47,1.54-0.69,3.14-1.18,4.69c-1.33,4.2-3.07,8.22-4.93,12.21c-2.02,4.33-4.84,8.14-7.57,12.01c-0.84,1.2-1.98,2.12-2.96,3.19
		c-3.6,3.9-7.85,7-12.66,9.18c-5.92,2.69-12.12,3.76-18.67,2.54c-5.21-0.97-10.03-2.87-14.36-5.77c-4.17-2.8-7.88-6.17-11.08-10.11
		c-2.18-2.69-4.21-5.46-6.04-8.38c-1.13-1.79-1.97-3.76-2.96-5.63c-1.88-3.54-3.36-7.25-4.67-11.02c-1.09-3.14-2.05-6.35-2.46-9.68
		c-0.14-1.15-0.72-2.19-0.87-3.38c-0.39-3.21-1.07-6.38-1.44-9.59c-0.34-2.94-0.58-5.89-0.44-8.87c0.08-1.84,0.07-3.68,0.12-5.52
		c0.04-1.39-0.01-2.8,0.17-4.18c0.53-4.03,0.69-8.11,1.58-12.09c1.17-5.22,2.72-10.32,4.58-15.36c1.94-5.28,4.79-10.05,7.79-14.75
		c1.29-2.02,3.01-3.72,4.52-5.57c2.03-2.49,4.55-4.46,7.1-6.34c3.46-2.55,7.15-4.68,11.49-5.58c2.36-0.49,4.67-1.13,7.09-1.3
		c1.08-0.08,2.14,0,3.19,0.15c3.36,0.46,6.75,0.63,9.96,2.09c2.85,1.3,5.57,2.72,8.2,4.43c5.67,3.68,10.1,8.52,13.92,13.99
		c2.88,4.12,5.41,8.44,7.42,13.06c0.75,1.73,1.4,3.51,2.02,5.29c0.86,2.47,1.72,4.94,2.44,7.44c0.86,2.99,1.44,6.06,2.06,9.12
		C378.38,348.39,378.77,352.6,379.22,356.99z"/>
	<path class="st1" d="M436.05,422.52c-0.58-2.64-7.44-96.67-7.16-98.01c4.52,4.69,8.94,9.39,13.48,13.95
		c2.09,2.1,3.98,4.38,6.13,6.41c0.82,0.78,1.04,1.64,1.12,2.67c0.69,9.48,1.4,18.96,2.11,28.44c0.63,8.53,1.25,17.07,1.92,25.6
		c0.1,1.25-0.14,2.15-1.1,3.1c-1.95,1.91-3.61,4.11-5.53,6.05c-3.26,3.3-6.11,6.97-9.5,10.15
		C437.04,421.33,436.64,421.85,436.05,422.52z"/>
	<path class="st1" d="M237.42,440.87c-1.67-1.12-2.85-2.32-3.97-3.54c-2.2-2.39-4.73-4.41-6.98-6.74c-1.7-1.77-3.5-3.45-5.28-5.13
		c-0.9-0.86-1.31-1.83-1.4-3.09c-1.22-16.95-2.49-33.91-3.75-50.86c-0.51-6.91-1-13.83-1.57-20.74c-0.11-1.28,0.2-2.24,1.05-3.17
		c3.04-3.34,6.05-6.71,9.03-10.1c1.29-1.46,2.45-3.04,3.9-4.36c0.25-0.22,0.44-0.49,0.92-0.48
		C232.05,368.63,234.72,404.61,237.42,440.87z"/>
	<path class="st1" d="M292.8,489.57c0.47,0.3,0.73,0.42,0.93,0.61c2.62,2.46,5.52,4.5,8.65,6.29c4.19,2.39,8.49,4.45,13.12,5.87
		c3.96,1.21,7.94,2.28,12.02,2.93c2.59,0.41,5.21,0.61,7.84,0.8c3.6,0.26,7.17,0.21,10.75-0.07c4.76-0.37,9.43-1.28,14.03-2.55
		c0.27-0.08,0.53-0.18,0.81,0.03c0.17,0.61-0.36,0.9-0.7,1.2c-2.59,2.31-4.58,5.18-7.06,7.59c-2.68,2.62-4.92,5.63-7.61,8.23
		c-2.53,2.45-4.61,5.29-7.13,7.74c-1.52,1.48-2.95,3.04-4.33,4.65c-0.89,1.04-0.95,1.02-1.94,0.07c-2.81-2.7-5.61-5.41-8.41-8.12
		c-3.73-3.6-7.52-7.12-11.16-10.81c-2.39-2.42-4.99-4.62-7.34-7.07c-2.86-2.98-6.01-5.65-8.89-8.61c-0.89-0.92-1.68-1.93-2.71-2.72
		c-0.3-0.23-0.57-0.54-0.6-0.97C292.93,493.05,292.72,491.45,292.8,489.57z"/>
	<path class="st1" d="M214.37,418.63c-2.84-2.35-5.19-4.89-7.69-7.27c-2.99-2.84-5.89-5.77-8.87-8.62
		c-0.66-0.63-0.97-1.29-1.03-2.18c-0.68-9.37-1.37-18.73-2.09-28.09c-0.07-0.96,0.2-1.65,0.86-2.39c3.77-4.19,7.46-8.44,11.2-12.65
		c0.84-0.94,1.77-1.79,2.71-2.74C209.96,356.02,214.53,415.92,214.37,418.63z"/>
	<path class="st1" d="M458.39,398.16c-1.15-15.48-2.28-30.73-3.43-46.11c1.06,0.33,1.64,1.1,2.26,1.74
		c6.39,6.62,12.73,13.3,19.22,19.83c0.51,0.51,0.95,1.09,1.46,1.61c0.75,0.76,0.69,1.16,0.02,2.02c-1.71,2.22-3.83,4.06-5.69,6.13
		c-3.61,4.02-7.28,8-10.95,11.97C460.43,396.28,459.48,397.12,458.39,398.16z"/>
	<path class="st1" d="M344.74,237.67c-1.45,0.48-2.89,0.03-4.33-0.05c-2.51-0.15-5.01-0.54-7.54-0.54c-4.1,0-8.19-0.04-12.25,0.58
		c-2.54,0.38-5.09,0.72-7.75,1.1c0.65-1.73,1.95-2.84,3.05-4.03c2.66-2.86,5.12-5.9,7.81-8.72c1.58-1.66,3.01-3.43,4.64-5.22
		c3,2.65,5.54,5.66,8.32,8.43c2.76,2.75,5.46,5.54,8.02,8.48L344.74,237.67z"/>
	<path class="st1" d="M190.03,376.72c0.48,6.46,0.96,12.89,1.44,19.33c-0.51,0.15-0.74-0.18-1.03-0.43
		c-2.57-2.15-4.75-4.69-7.17-6.99c-0.57-0.54-1.17-1.03-1.74-1.56c-0.38-0.35-0.46-0.73-0.08-1.16c2.69-3.05,5.29-6.18,8.21-9.03
		C189.71,376.81,189.83,376.8,190.03,376.72z"/>
	<path class="st10" d="M352.13,232.04c0.04,0.03,0.08,0.05,0.12,0.08c0.01,0.02,0,0.06,0,0.09c-0.03-0.06-0.06-0.12-0.09-0.19
		C352.16,232.02,352.13,232.04,352.13,232.04z"/>
</g>
</svg>
