<?xml version="1.0" encoding="utf-8"?>
<!-- Generator: Adobe Illustrator 24.2.1, SVG Export Plug-In . SVG Version: 6.00 Build 0)  -->
<svg version="1.1" id="Layer_1" xmlns="http://www.w3.org/2000/svg" xmlns:xlink="http://www.w3.org/1999/xlink" x="0px" y="0px"
	 viewBox="0 0 42.6 39.51" style="enable-background:new 0 0 42.6 39.51;" xml:space="preserve">
<style type="text/css">
	.st0{fill:#4B78BA;stroke:#1D1D1B;stroke-width:0.25;stroke-miterlimit:10;}
	.st1{fill:#1D1D1B;}
</style>
<g>
	<g>
		<g>
			<path class="st0" d="M22.82,21.42c0,0,11.81,3.78,8.89,14.92C24.17,32.53,23.66,29.97,22.82,21.42z"/>
			<path class="st0" d="M21.94,21.97c0,0,8.39,9.09,0.31,17.34C17.6,32.29,18.43,29.82,21.94,21.97z"/>
			<path class="st0" d="M19.96,20.86c0,0,4.49,11.5-6.04,16.26C12.14,28.9,13.81,26.9,19.96,20.86z"/>
		</g>
		<g>
			<path class="st0" d="M17.97,21.48c0,0-1.07,12.29-12.65,11.94C7.39,25.26,9.78,24.2,17.97,21.48z"/>
			<path class="st0" d="M17.24,20.75c0,0-7.04,10.15-16.93,4.16C6.15,18.84,8.76,19.09,17.24,20.75z"/>
			<path class="st0" d="M17.89,18.58c0,0-10.27,6.92-17.29-2.24C8.26,12.79,10.6,13.97,17.89,18.58z"/>
		</g>
	</g>
	<g>
		<path class="st0" d="M18.48,18.24c0,0-12.29,1.66-14.49-9.65C12.44,8.8,14,10.88,18.48,18.24z"/>
		<path class="st0" d="M19.03,17.36c0,0-11.51-4.6-7.81-15.51C18.47,6.19,18.79,8.77,19.03,17.36z"/>
		<path class="st0" d="M21.3,17.52c0,0-9.05-8.44-1.61-17.27C24.86,6.9,24.22,9.43,21.3,17.52z"/>
	</g>
	<path class="st0" d="M22.82,17.81c0,0-4.37-11.55,6.22-16.2C30.73,9.85,29.03,11.83,22.82,17.81z"/>
	<path class="st0" d="M23.8,18.15c0,0,1.94-12.18,13.46-11.02C34.63,15.11,32.17,16,23.8,18.15z"/>
	<path class="st0" d="M24.16,20.38c0,0,6.26-10.65,16.57-5.41C35.36,21.47,32.74,21.41,24.16,20.38z"/>
	<path class="st0" d="M24.54,21.49c0,0,9.49-7.94,17.43,0.44C34.73,26.25,32.28,25.32,24.54,21.49z"/>
	<path class="st0" d="M24.64,22.81c0,0,11.85-3.66,15.9,7.12C32.18,31.12,30.28,29.32,24.64,22.81z"/>
	
		<ellipse transform="matrix(0.0216 -0.9998 0.9998 0.0216 1.3642 41.2192)" class="st1" cx="21.74" cy="19.91" rx="6.82" ry="6.86"/>
</g>
</svg>
