<?xml version="1.0" encoding="utf-8"?>
<!-- Generator: Adobe Illustrator 24.2.1, SVG Export Plug-In . SVG Version: 6.00 Build 0)  -->
<svg version="1.1" id="Layer_1" xmlns="http://www.w3.org/2000/svg" xmlns:xlink="http://www.w3.org/1999/xlink" x="0px" y="0px"
	 viewBox="0 0 42.6 39.51" style="enable-background:new 0 0 42.6 39.51;" xml:space="preserve">
<style type="text/css">
	.st0{fill:#E8521D;stroke:#1D1D1B;stroke-width:0.25;stroke-miterlimit:10;}
	.st1{fill:#1D1D1B;}
</style>
<g>
	<g>
		<g>
			<path class="st0" d="M22.68,21.56c0,0,11.76,3.49,9.11,14.57C24.25,32.52,23.69,30,22.68,21.56z"/>
			<path class="st0" d="M21.82,22.13c0,0,8.49,8.81,0.68,17.14C17.74,32.43,18.51,29.96,21.82,22.13z"/>
			<path class="st0" d="M19.84,21.07c0,0,4.69,11.28-5.63,16.22C12.27,29.19,13.89,27.17,19.84,21.07z"/>
		</g>
		<g>
			<path class="st0" d="M17.89,21.72c0,0-0.8,12.18-12.26,12.08C7.5,25.69,9.84,24.59,17.89,21.72z"/>
			<path class="st0" d="M17.14,21.02c0,0-6.75,10.19-16.66,4.48C6.14,19.36,8.72,19.56,17.14,21.02z"/>
			<path class="st0" d="M17.74,18.86c0,0-10.01,7.06-17.15-1.84C8.09,13.34,10.43,14.45,17.74,18.86z"/>
		</g>
	</g>
	<g>
		<path class="st0" d="M18.32,18.5c0,0-12.13,1.9-14.54-9.23C12.14,9.3,13.73,11.33,18.32,18.5z"/>
		<path class="st0" d="M18.84,17.63c0,0-11.49-4.31-8.05-15.17C18.05,6.59,18.42,9.14,18.84,17.63z"/>
		<path class="st0" d="M21.09,17.73c0,0-9.13-8.16-1.96-17.05C24.39,7.16,23.81,9.67,21.09,17.73z"/>
	</g>
	<path class="st0" d="M22.61,17.99c0,0-4.57-11.33,5.81-16.15C30.26,9.95,28.62,11.95,22.61,17.99z"/>
	<path class="st0" d="M23.58,18.3c0,0,1.66-12.09,13.08-11.19C34.23,15.07,31.81,16,23.58,18.3z"/>
	<path class="st0" d="M23.98,20.51c0,0,5.97-10.67,16.27-5.7C35.08,21.34,32.49,21.34,23.98,20.51z"/>
	<path class="st0" d="M24.39,21.59c0,0,9.22-8.06,17.25,0.06C34.56,26.08,32.12,25.21,24.39,21.59z"/>
	<path class="st0" d="M24.51,22.9c0,0,11.64-3.88,15.88,6.7C32.14,30.96,30.23,29.22,24.51,22.9z"/>
	<ellipse class="st1" cx="21.14" cy="20.13" rx="6.79" ry="6.75"/>
</g>
</svg>
