<svg id="Layer_1" data-name="Layer 1" xmlns="http://www.w3.org/2000/svg" viewBox="0 0 42.6 39.51"><defs><style>.cls-1{fill:#f8ad1d;stroke:#1d1d1b;stroke-miterlimit:10;stroke-width:0.25px;}.cls-2{fill:#1d1d1b;}</style></defs><path class="cls-1" d="M481.62,282.29s11.66,3.82,8.69,14.82C482.88,293.29,482.4,290.76,481.62,282.29Z" transform="translate(-459.13 -260.67)"/><path class="cls-1" d="M480.75,282.83s8.24,9.05.19,17.16C476.38,293,477.22,290.57,480.75,282.83Z" transform="translate(-459.13 -260.67)"/><path class="cls-1" d="M478.79,281.72s4.37,11.4-6.08,16C471,289.63,472.67,287.66,478.79,281.72Z" transform="translate(-459.13 -260.67)"/><path class="cls-1" d="M476.82,282.32s-1.14,12.15-12.59,11.73C466.33,286,468.7,285,476.82,282.32Z" transform="translate(-459.13 -260.67)"/><path class="cls-1" d="M476.1,281.59s-7,10-16.78,4C465.15,279.63,467.72,279.9,476.1,281.59Z" transform="translate(-459.13 -260.67)"/><path class="cls-1" d="M476.76,279.45s-10.21,6.78-17.1-2.32C467.27,273.67,469.57,274.84,476.76,279.45Z" transform="translate(-459.13 -260.67)"/><path class="cls-1" d="M478.27,278.67s-12.16,1.68-14.37-9.49C472.26,269.35,473.82,271.41,478.27,278.67Z" transform="translate(-459.13 -260.67)"/><path class="cls-1" d="M478.81,277.8s-11.4-4.51-7.77-15.31C478.22,266.75,478.55,269.31,478.81,277.8Z" transform="translate(-459.13 -260.67)"/><path class="cls-1" d="M481.06,278s-9-8.32-1.65-17.08C484.55,267.44,483.92,269.94,481.06,278Z" transform="translate(-459.13 -260.67)"/><path class="cls-1" d="M482.57,278.23s-4.36-11.41,6.1-16C490.36,270.33,488.69,272.3,482.57,278.23Z" transform="translate(-459.13 -260.67)"/><path class="cls-1" d="M483.54,278.56s1.88-12.06,13.28-10.95C494.24,275.53,491.81,276.42,483.54,278.56Z" transform="translate(-459.13 -260.67)"/><path class="cls-1" d="M483.9,280.78s6.16-10.56,16.37-5.41C495,281.81,492.39,281.76,483.9,280.78Z" transform="translate(-459.13 -260.67)"/><path class="cls-1" d="M484.28,281.87s9.37-7.89,17.25.37C494.37,286.54,492,285.63,484.28,281.87Z" transform="translate(-459.13 -260.67)"/><path class="cls-1" d="M484.38,283.18s11.71-3.67,15.76,7C491.87,291.37,490,289.6,484.38,283.18Z" transform="translate(-459.13 -260.67)"/><ellipse class="cls-2" cx="20.62" cy="20.59" rx="6.79" ry="6.75"/></svg>